<?xml version="1.0" encoding="utf-8"?>
<!-- Generator: Adobe Illustrator 25.3.1, SVG Export Plug-In . SVG Version: 6.00 Build 0)  -->
<svg version="1.1" id="Layer_1" xmlns="http://www.w3.org/2000/svg" xmlns:xlink="http://www.w3.org/1999/xlink" x="0px" y="0px"
	 viewBox="0 0 512 512" style="enable-background:new 0 0 512 512;" xml:space="preserve">
<style type="text/css">
	.st0{fill:#323336;stroke:#000000;stroke-width:0.75;stroke-miterlimit:10;}
</style>
<path class="st0" d="M255.82,0L33.9,128.13v256.25l221.92,128.13l221.92-128.13V128.13L255.82,0z M166.85,184.44
	c-4.56,1.99-10.03,2.99-16.26,2.99c-8.14,0-14.99-1.83-20.37-5.45c-5.44-3.66-9.54-8.71-12.2-15c-2.48-5.89-3.88-12.64-4.14-20.05
	l0-0.09c-0.08-3.48-0.12-7.29-0.12-11.33c0-4.04,0.04-7.93,0.12-11.57l0-0.1c0.26-7.4,1.65-14.16,4.13-20.1
	c2.65-6.36,6.77-11.42,12.24-15.04c5.37-3.56,12.21-5.37,20.33-5.37c6.23,0,11.7,1.01,16.26,2.99c4.63,2.02,8.51,4.76,11.52,8.14
	c2.95,3.32,5.2,6.97,6.68,10.88c1.43,3.78,2.26,7.57,2.47,11.27c0.22,2.78-0.75,5.39-2.69,7.17c-1.56,1.44-3.49,2.2-5.57,2.2h-2.33
	c-1.88,0-3.65-0.64-5.13-1.84c-1.15-0.94-2.62-2.74-3.16-5.96c-1.13-5.7-3.05-9.51-5.71-11.33c-3.12-2.13-7.27-3.22-12.34-3.22
	c-5.56,0-9.74,1.56-12.8,4.76c-3.01,3.16-4.67,8.72-4.92,16.53c-0.23,6.77-0.23,13.79,0,20.88c0.25,7.81,1.91,13.37,4.92,16.53
	c3.06,3.21,7.24,4.76,12.8,4.76c5.07,0,9.22-1.08,12.34-3.22c2.66-1.82,4.58-5.63,5.71-11.32c0.53-3.23,2-5.02,3.16-5.96
	c1.47-1.2,3.25-1.84,5.13-1.84h2.33c2.07,0,4,0.76,5.56,2.19c1.95,1.8,2.92,4.4,2.7,7.18c-0.2,3.71-1.03,7.5-2.46,11.27
	c-1.49,3.91-3.73,7.57-6.68,10.88C175.36,179.68,171.48,182.42,166.85,184.44z M235.54,315.76c0.75,21.29,5.66,36.46,14.6,45.06
	c9.07,8.74,21.5,12.99,38,12.99c15.06,0,27.39-2.95,36.64-8.77c7.9-4.96,13.6-15.35,16.96-30.87c1.58-8.79,5.95-13.68,9.37-16.25
	c4.38-3.28,9.64-5.02,15.23-5.02h6.92c6.16,0,11.87,2.06,16.51,5.97c5.79,4.91,8.67,12,8.02,19.57c-0.61,10.1-3.07,20.44-7.32,30.72
	c-4.41,10.66-11.08,20.64-19.83,29.66c-8.93,9.22-20.44,16.68-34.2,22.19c-13.54,5.41-29.79,8.16-48.29,8.16
	c-24.16,0-44.5-5-60.48-14.86c-16.16-9.97-28.34-23.73-36.22-40.9c-7.38-16.06-11.51-34.45-12.29-54.65l-0.01-0.24
	c-0.23-9.48-0.35-19.87-0.35-30.88c0-11,0.12-21.62,0.35-31.55l0.01-0.26c0.78-20.17,4.91-38.6,12.27-54.78
	c7.88-17.33,20.11-31.12,36.33-41c15.96-9.71,36.27-14.63,60.38-14.63c18.5,0,34.75,2.74,48.29,8.16
	c13.76,5.51,25.27,12.97,34.2,22.19c8.76,9.04,15.43,19.01,19.83,29.65c4.25,10.29,6.71,20.63,7.32,30.73
	c0.66,7.59-2.24,14.69-7.99,19.55c-4.63,3.92-10.35,5.99-16.53,5.99h-6.92c-5.58,0-10.85-1.73-15.23-5.02
	c-3.42-2.57-7.79-7.46-9.37-16.25c-3.36-15.52-9.07-25.91-16.96-30.87c-9.25-5.82-21.58-8.77-36.64-8.77
	c-16.5,0-28.93,4.25-38,12.98c-8.94,8.61-13.85,23.77-14.61,45.07C234.86,277.29,234.86,296.43,235.54,315.76z"/>
</svg>
