<svg id="Layer_1" data-name="Layer 1" xmlns="http://www.w3.org/2000/svg" viewBox="0 0 891.79 912.2"><defs><style>.cls-1{fill:#414042;}.cls-2{font-size:208.38px;fill:#fff;font-family:Montserrat-Bold, Montserrat;font-weight:700;}</style></defs><path class="cls-1" d="M515.44,658.05c-80.94,0-146.79-65.85-146.79-146.79S434.5,364.47,515.44,364.47s146.79,65.85,146.79,146.79S596.38,658.05,515.44,658.05Z" transform="translate(-94.21 -27.52)"/><path class="cls-1" d="M151.38,723.31a108.92,108.92,0,0,1,36.46-28,373.59,373.59,0,0,1-48.25-184.09c0-171.93,116-317.26,273.91-361.8a107.86,107.86,0,0,1-6.42-36.74c0-2.94.13-5.85.36-8.73A421.2,421.2,0,0,0,151.38,723.31Z" transform="translate(-94.21 -27.52)"/><path class="cls-1" d="M515.44,887.11A373.53,373.53,0,0,1,332.1,839.28a109.15,109.15,0,0,1-27.88,36.52,422.68,422.68,0,0,0,325.29,41.07,107.75,107.75,0,0,1-17.91-42.23A375.29,375.29,0,0,1,515.44,887.11Z" transform="translate(-94.21 -27.52)"/><path class="cls-1" d="M515.44,267.54c121.26,0,222.11,89,240.66,205.13a108.72,108.72,0,0,1,46.26,2.75A289.51,289.51,0,0,0,404.12,244.29a108.68,108.68,0,0,1,25.49,38.87A242.36,242.36,0,0,1,515.44,267.54Z" transform="translate(-94.21 -27.52)"/><path class="cls-1" d="M705.11,664.12A243.36,243.36,0,0,1,515.44,755c-134.39,0-243.72-109.33-243.72-243.72a242.55,242.55,0,0,1,16.77-88.86,108.62,108.62,0,0,1-38.51-26A289.18,289.18,0,0,0,719.87,715.69a294.12,294.12,0,0,0,26.81-30.85A108.18,108.18,0,0,1,705.11,664.12Z" transform="translate(-94.21 -27.52)"/><path class="cls-1" d="M839.05,320.28a107.73,107.73,0,0,1,42.43-17.65A421.48,421.48,0,0,0,623.44,104q.34,4.32.35,8.73a107.85,107.85,0,0,1-6.41,36.74A377.48,377.48,0,0,1,839.05,320.28Z" transform="translate(-94.21 -27.52)"/><path class="cls-1" d="M900.8,517.62q-4.83,0-9.57-.42a374.51,374.51,0,0,1-104.3,253.71A109.17,109.17,0,0,1,815.42,807,419.8,419.8,0,0,0,936.66,511.51,107.88,107.88,0,0,1,900.8,517.62Z" transform="translate(-94.21 -27.52)"/><path class="cls-1" d="M515.44,66.42a46.31,46.31,0,1,1-46.31,46.3,46.3,46.3,0,0,1,46.31-46.3m0-38.9a85.2,85.2,0,1,0,85.2,85.2,85.3,85.3,0,0,0-85.2-85.2Z" transform="translate(-94.21 -27.52)"/><path class="cls-1" d="M900.8,363a46.31,46.31,0,1,1-46.31,46.3A46.3,46.3,0,0,1,900.8,363m0-38.9a85.21,85.21,0,1,0,85.2,85.2,85.3,85.3,0,0,0-85.2-85.2Z" transform="translate(-94.21 -27.52)"/><path class="cls-1" d="M718.07,808.21a46.31,46.31,0,1,1-46.31,46.3,46.31,46.31,0,0,1,46.31-46.3m0-38.9a85.2,85.2,0,1,0,85.2,85.2,85.3,85.3,0,0,0-85.2-85.2Z" transform="translate(-94.21 -27.52)"/><path class="cls-1" d="M234,747.08a46.31,46.31,0,1,1-46.3,46.31A46.31,46.31,0,0,1,234,747.08m0-38.9a85.21,85.21,0,1,0,85.21,85.21A85.3,85.3,0,0,0,234,708.18Z" transform="translate(-94.21 -27.52)"/><path class="cls-1" d="M328.32,275.33A46.31,46.31,0,1,1,282,321.63a46.3,46.3,0,0,1,46.31-46.3m0-38.9a85.21,85.21,0,1,0,85.2,85.2,85.3,85.3,0,0,0-85.2-85.2Z" transform="translate(-94.21 -27.52)"/><path class="cls-1" d="M773,533.41a46.31,46.31,0,1,1-46.31,46.3A46.31,46.31,0,0,1,773,533.41m0-38.9a85.2,85.2,0,1,0,85.2,85.2,85.3,85.3,0,0,0-85.2-85.2Z" transform="translate(-94.21 -27.52)"/><text class="cls-2" transform="translate(337.88 555.31)">C</text></svg>