<?xml version="1.0" encoding="utf-8"?>
<!-- Generator: Adobe Illustrator 26.0.2, SVG Export Plug-In . SVG Version: 6.00 Build 0)  -->
<svg version="1.1" id="Layer_1" xmlns="http://www.w3.org/2000/svg" xmlns:xlink="http://www.w3.org/1999/xlink" x="0px" y="0px"
	 viewBox="0 0 750 630.5" style="enable-background:new 0 0 750 630.5;" xml:space="preserve">
<style type="text/css">
	.st0{opacity:0.7;}
	.st1{fill:#757575;}
	.st2{fill:#FFFFFF;}
	.st3{opacity:0.5;}
	.st4{fill:#DDDDDD;stroke:#FFFFFF;stroke-width:5;}
	.st5{opacity:0.6;}
	.st6{fill:#757575;stroke:#FFFFFF;stroke-width:5;stroke-linejoin:round;}
	.st7{display:none;}
	.st8{display:inline;}
	.st9{display:inline;fill:#757575;stroke:#FFFFFF;stroke-width:5;stroke-linejoin:round;}
	.st10{fill:#757575;stroke:#FFFFFF;stroke-width:4;}
	.st11{display:inline;fill:#757575;stroke:#FFFFFF;stroke-width:4;}
	.st12{fill:#757575;stroke:#FFFFFF;stroke-width:5;}
	.st13{opacity:0.78;}
	.st14{opacity:0.44;}
	.st15{fill:none;stroke:#FFFFFF;stroke-width:5;stroke-linejoin:round;}
	.st16{display:inline;fill:none;stroke:#FFFFFF;stroke-width:5;stroke-linejoin:round;}
	.st17{fill:none;stroke:#FFFFFF;stroke-width:4;}
	.st18{display:inline;fill:none;stroke:#FFFFFF;stroke-width:4;}
	.st19{fill:none;stroke:#FFFFFF;stroke-width:5;}
</style>
<g id="Layer_1_00000060005195207105327260000013850385021540585645_">
	<g class="st0">
		<path class="st1" d="M673.5,627.9c-14.7-3.7-36.7-26.8-60-51.2c-34.8-36.5-74.3-77.9-108.7-77.9H245.2
			c-34.4,0-73.9,41.4-108.7,77.9c-23.3,24.4-45.3,47.5-60,51.2c-2.7-0.3-19.2-2.9-35.8-14.9c-24.1-17.5-37-45.7-38.1-84
			c-2-63.7,26-166.5,85.4-314.2c5.3-13.1,15.3-18,19.1-19.9c1-0.5,1.6-0.8,2.1-1.2c5.7-5.1,7-10.3,8.1-15
			c1.4-5.7,2.5-10.6,11.4-15.4c21.9-11.9,64.2-31.8,101.1-31.8c4,0,8,0.2,11.6,0.7c3.4,0.5,8.9,3.6,14.6,7
			c8.7,5,18.5,10.7,26.9,10.7h184.3c8.4,0,18.2-5.7,26.9-10.7c5.8-3.3,11.2-6.5,14.6-7c3.7-0.5,7.6-0.7,11.6-0.7
			c36.9,0,79.1,19.9,101.1,31.8c8.8,4.8,10,9.7,11.4,15.4c1.1,4.7,2.4,10,8.1,15c0.5,0.4,1,0.7,2.1,1.2c3.8,1.9,13.8,6.8,19.1,19.9
			c59.4,147.8,87.3,250.5,85.4,314.2c-1.2,37.8-14.4,66.9-38.3,84.1C692.5,625.1,676.2,627.6,673.5,627.9z"/>
		<path class="st2" d="M520.4,134.1c36.3,0,78.1,19.8,99.9,31.5c7.9,4.3,8.8,8.2,10.1,13.7c1.1,4.8,2.6,10.7,8.9,16.3
			c0.7,0.6,1.5,1,2.6,1.6c3.9,1.9,12.9,6.4,17.9,18.6c30.3,75.4,52.8,140.3,66.8,193c13.1,49.4,19.3,89.8,18.4,120.1
			c-0.6,20.6-4.8,38.5-12.5,53.2c-6,11.6-14.3,21.3-24.4,28.7c-15.4,11.2-30.8,14-34.3,14.5c-14-3.9-35.5-26.5-58.3-50.4
			c-35.2-36.9-75.1-78.6-110.5-78.6H375H245.2c-35.4,0-75.3,41.8-110.5,78.6c-22.8,23.9-44.4,46.5-58.3,50.4
			c-3.6-0.5-19-3.3-34.4-14.5c-10.2-7.4-18.4-17.1-24.4-28.7C9.9,567.5,5.7,549.6,5.1,529c-0.9-30.4,5.3-70.8,18.4-120.1
			c14-52.7,36.5-117.7,66.8-193c4.9-12.2,14-16.7,17.9-18.6c1.2-0.6,1.9-0.9,2.6-1.6c6.3-5.6,7.7-11.5,8.9-16.3
			c1.3-5.5,2.3-9.5,10.1-13.7c21.7-11.8,63.6-31.5,99.9-31.5c3.9,0,7.7,0.2,11.3,0.7c2.9,0.4,8.4,3.6,13.7,6.6
			c8.9,5.2,19.1,11,28.2,11H375h92.2c9.1,0,19.2-5.9,28.2-11c5.3-3.1,10.8-6.2,13.7-6.6C512.6,134.4,516.4,134.1,520.4,134.1
			 M520.4,129.1c-4.1,0-8.1,0.2-12,0.8c-9.2,1.2-27.8,17.6-41.2,17.6c-21.9,0-92.2,0-92.2,0s-70.3,0-92.2,0
			c-13.4,0-32-16.4-41.2-17.6c-3.9-0.5-7.9-0.8-12-0.8c-39.9,0-85.7,23.1-102.2,32.1c-17.5,9.5-8.2,20.4-19.9,30.7
			c-1.3,1.1-15.1,5.3-21.8,22C22.9,370-1.7,469.1,0.1,529.1C3,623.5,76.7,630.5,76.7,630.5c37-8.6,111.6-129.1,168.5-129.1
			c31.2,0,129.8,0,129.8,0s98.6,0,129.8,0c57,0,131.5,120.5,168.5,129.1c0,0,73.7-6.9,76.6-101.3c1.9-60-22.8-159.1-85.5-315.2
			c-6.7-16.7-20.5-20.9-21.8-22c-11.7-10.3-2.5-21.2-19.9-30.7C606,152.3,560.3,129.1,520.4,129.1L520.4,129.1z"/>
	</g>
	<g class="st3">
		<g>
			<path class="st1" d="M106.2,192.6c0.5-0.3,0.9-0.5,1.2-0.6C107,192.2,106.6,192.4,106.2,192.6z"/>
			<path class="st2" d="M107.4,192c-0.4,0.2-0.8,0.4-1.2,0.6C106.8,192.4,107.2,192.2,107.4,192L107.4,192z"/>
		</g>
		<g>
			<path class="st1" d="M642.6,192c0.2,0.2,0.8,0.4,1.5,0.8C643.6,192.5,643.1,192.2,642.6,192z"/>
			<path class="st2" d="M642.6,192c0.2,0.2,0.8,0.4,1.5,0.8C643.6,192.5,643.1,192.2,642.6,192L642.6,192z"/>
		</g>
		<g>
			<path class="st1" d="M76.5,627.9c-2.7-0.3-19.2-2.9-35.8-14.9c-24.1-17.5-37-45.7-38.1-84c-2-63.7,26-166.5,85.4-314.2
				c2.4-6.1,6.2-11.1,11.1-15c3.3-2.6,6.3-4.1,8.1-4.9l0.2-0.1l0.3-0.2c0.4-0.2,0.7-0.4,1-0.6c31.1-16.7,88.5-34.4,111.7-34.4
				c2.1,0,3.8,0.1,5.3,0.4c11.9,2.3,27.8,21.4,43.1,39.9c17.1,20.5,33.2,39.9,46.3,39.9h121c13.1,0,29.2-19.4,46.3-39.9
				c15.4-18.5,31.3-37.6,43.1-39.9c1.5-0.3,3.3-0.4,5.5-0.4c22.8,0,78.3,17.3,110.2,34.4c0.4,0.3,0.8,0.5,1.5,0.8l0.3,0.1
				c1.7,0.8,4.2,2.1,7,4.1c5.4,4,9.5,9.3,12.1,15.7c59.4,147.8,87.3,250.5,85.4,314.2c-1.2,38.2-14,66.5-38.1,84
				c-16.5,12-33,14.5-35.8,14.9c-14.7-3.7-36.7-26.8-60-51.2c-34.8-36.5-74.3-77.9-108.7-77.9H245.2c-34.4,0-73.9,41.4-108.7,77.9
				C113.2,601.1,91.2,624.2,76.5,627.9z"/>
			<path class="st2" d="M531,162.2c22.5,0,77.3,17.2,108.9,34c0.5,0.3,1,0.6,1.7,0.9l0.3,0.1l0,0c1.6,0.8,3.9,1.9,6.6,3.9
				c5,3.7,8.8,8.6,11.2,14.6c30.3,75.4,52.8,140.3,66.8,193c13.1,49.4,19.3,89.8,18.4,120.1c-0.6,20.6-4.8,38.5-12.5,53.2
				c-6,11.6-14.3,21.3-24.4,28.7c-15.4,11.2-30.8,14-34.3,14.5c-14-3.9-35.5-26.5-58.3-50.4c-35.2-36.9-75.1-78.6-110.5-78.6H375
				H245.2c-35.4,0-75.3,41.8-110.5,78.6c-22.8,23.9-44.4,46.5-58.3,50.4c-3.6-0.5-19-3.3-34.4-14.5c-10.2-7.4-18.4-17.1-24.4-28.7
				C9.9,567.5,5.7,549.6,5.1,529c-0.9-30.4,5.3-70.8,18.4-120.1c14-52.7,36.5-117.7,66.8-193c2.3-5.7,5.8-10.4,10.4-14
				c3.1-2.5,6-3.8,7.7-4.6l0.1-0.1l0.1,0l0.1,0l0.3-0.1c0.4-0.2,0.8-0.4,1.1-0.6c30.9-16.6,87.5-34.1,110.4-34.1
				c1.9,0,3.5,0.1,4.8,0.4c11,2.1,27.3,21.7,41.7,39c18.2,21.9,34,40.8,48.2,40.8h60.5h60.5c14.3,0,30-18.9,48.2-40.8
				c14.4-17.3,30.7-36.9,41.7-39C527.4,162.3,529,162.2,531,162.2 M531,157.2c-2.3,0-4.2,0.2-5.9,0.5c-26,5-65.5,79.7-89,79.7
				c-15.1,0-60.5,0-60.5,0s-45.4,0-60.5,0c-23.4,0-63-74.7-89-79.7c-1.6-0.3-3.5-0.5-5.7-0.5c-24.5,0-82.6,18.4-113,34.8
				c-0.2,0.2-0.6,0.4-1.2,0.6c-1.8,0.8-5.1,2.4-8.7,5.3c-4.2,3.3-8.8,8.4-11.9,16.1C22.9,370-1.7,469.1,0.1,529.1
				C3,623.5,76.7,630.5,76.7,630.5c37-8.6,111.6-129.1,168.5-129.1c31.2,0,129.8,0,129.8,0s98.6,0,129.8,0
				c57,0,131.5,120.5,168.5,129.1c0,0,73.7-6.9,76.6-101.3c1.9-60-22.8-159.1-85.5-315.2c-3.3-8.3-8.4-13.5-12.9-16.8
				c-3-2.2-5.7-3.6-7.4-4.4c-0.8-0.4-1.3-0.6-1.5-0.8C611.8,175.5,555.6,157.2,531,157.2L531,157.2z"/>
		</g>
	</g>
	<line class="st4" x1="107.5" y1="192" x2="107.5" y2="193.5"/>
	<line class="st4" x1="642.5" y1="191.5" x2="642.5" y2="192.4"/>
	<g id="Dpad" class="st5">
		<g>
			<path class="st6" d="M277.7,462.1c-33.4,0-60.6-27.2-60.6-60.6c0-33.4,27.2-60.6,60.6-60.6c33.4,0,60.6,27.2,60.6,60.6
				C338.3,434.9,311.1,462.1,277.7,462.1z"/>
			<g>
				<path class="st6" d="M277.7,341.9c32.9,0,59.6,26.7,59.6,59.6c0,32.9-26.7,59.6-59.6,59.6c-32.9,0-59.6-26.7-59.6-59.6
					C218,368.6,244.8,341.9,277.7,341.9 M277.7,339.9c-34,0-61.6,27.6-61.6,61.6c0,34,27.6,61.6,61.6,61.6c34,0,61.6-27.6,61.6-61.6
					C339.3,367.4,311.7,339.9,277.7,339.9L277.7,339.9z"/>
			</g>
		</g>
		<g class="st7">
			<g class="st8">
				<path class="st6" d="M291.2,353.5L291.2,353.5c0-5-27.1-5-27.1,0c0,23.8,0,96,0,96l0,0l0,0c0,5,27.1,5,27.1,0
					C291.2,425.6,291.2,353.5,291.2,353.5L291.2,353.5z"/>
			</g>
			<g class="st8">
				<path class="st6" d="M229.7,387.9L229.7,387.9c-5,0-5,27.1,0,27.1c23.9,0,96,0,96,0l0,0l0,0c5,0,5-27.1,0-27.1
					C301.8,387.9,229.7,387.9,229.7,387.9L229.7,387.9z"/>
			</g>
		</g>
		<g class="st7">
			<g class="st8">
				<path class="st6" d="M277.7,349.8c6.8,0,13.6,1.2,13.6,3.7v0h0c0,0,0,15.4,0,34.4c13.8,0,26.7,0,34.4,0c5,0,5,27.1,0,27.1l0,0
					l0,0c0,0-15.5,0-34.4,0c0,13.8,0,26.7,0,34.4c0,2.5-6.8,3.7-13.6,3.7c-6.8,0-13.6-1.2-13.6-3.7l0,0l0,0c0,0,0-15.4,0-34.4
					c-13.8,0-26.7,0-34.4,0c-5,0-5-27.1,0-27.1h0c0,0,15.5,0,34.4,0c0-13.8,0-26.7,0-34.4C264.1,351,270.9,349.8,277.7,349.8
					 M277.7,346.2c-3.8,0-7.5,0.4-10.2,1c-5.8,1.4-7,4.2-7,6.3v30.8h-30.8c-2.1,0-4.9,1.2-6.3,7c-0.7,2.7-1,6.4-1,10.2
					c0,3.8,0.4,7.4,1,10.2c1.4,5.8,4.2,7,6.3,7h30.8v30.8v0.8l0.1,0.2c0.4,1.9,2.1,4,6.9,5.2c2.7,0.7,6.3,1,10.2,1
					c3.8,0,7.4-0.4,10.2-1c5.8-1.4,7-4.2,7-6.3v-30.8h30.8h1.5l0.3-0.3c1.7-0.7,3.4-2.5,4.5-6.6c0.7-2.7,1-6.4,1-10.2
					c0-3.8-0.4-7.4-1-10.2c-1.4-5.8-4.2-7-6.3-7h-30.8v-30.8c0-2.1-1.2-4.9-7-6.3C285.1,346.5,281.5,346.2,277.7,346.2L277.7,346.2z
					"/>
			</g>
			<line class="st9" x1="287.6" y1="357.1" x2="294.8" y2="349.9"/>
			<line class="st9" x1="267.8" y1="356.2" x2="260.9" y2="349.3"/>
			<line class="st9" x1="322.3" y1="391.3" x2="329" y2="384.6"/>
			<line class="st9" x1="322.8" y1="412.2" x2="328.5" y2="417.9"/>
			<line class="st9" x1="286.7" y1="392.5" x2="295.8" y2="383.4"/>
			<line class="st9" x1="286.1" y1="409.9" x2="296.3" y2="420.2"/>
			<line class="st9" x1="287.5" y1="445.8" x2="294.9" y2="453.2"/>
			<line class="st9" x1="268.5" y1="445.1" x2="259.7" y2="453.9"/>
			<line class="st9" x1="269.6" y1="409.6" x2="258.6" y2="420.5"/>
			<line class="st9" x1="270.3" y1="394.2" x2="257.9" y2="381.7"/>
			<line class="st9" x1="233.8" y1="411" x2="225.6" y2="419.1"/>
			<line class="st9" x1="233.4" y1="391.6" x2="226" y2="384.2"/>
		</g>
		<g>
			<g>
				<path class="st6" d="M277.7,452.7c-7.1,0-12.7-1.3-13-3.1c0,0,0-0.1,0-0.1c0-0.1,0-15.5,0-34.4c0-0.3-0.2-0.5-0.5-0.5h-34.4
					c-1.8,0-3.2-5.7-3.2-13.1s1.4-13.1,3.2-13.1h34.4c0.3,0,0.5-0.2,0.5-0.5v-34.4c0,0,0-0.1,0-0.1l0.1-0.2c0,0,0.1-0.1,0.1-0.1
					c0.5-0.8,2.1-1.5,4.5-2c0.3-0.1,0.6-0.1,0.9-0.2c0.4-0.1,0.7-0.1,1-0.1c0,0,0.1,0,0.2,0c0.3,0,0.6-0.1,0.9-0.1
					c0.3,0,0.7-0.1,1-0.1c0.4,0,0.7-0.1,1-0.1l2.4-0.1c0.4,0,0.7,0,1,0c7.3,0,13.1,1.4,13.1,3.2c0,0.2,0,16,0,34.4
					c0,0.3,0.2,0.5,0.5,0.5h34.4c1.8,0,3.2,5.7,3.2,13.1s-1.4,13.1-3.2,13.1h-34.4c-0.3,0-0.5,0.2-0.5,0.5v34.4c0,0,0,0.1,0,0.2
					C290.4,451.4,284.8,452.7,277.7,452.7z"/>
				<path class="st6" d="M277.7,350.8c8.1,0,12.6,1.6,12.6,2.7c0,0,0,0,0,0v34.4c0,0.6,0.4,1,1,1h34.4c1.1,0,2.7,4.8,2.7,12.6
					c0,7.8-1.6,12.6-2.7,12.6h-34.4c-0.6,0-1,0.4-1,1v34.4c0,0,0,0,0,0.1c-0.2,1.1-4.7,2.7-12.6,2.7c-7.9,0-12.4-1.5-12.6-2.7
					c0,0,0-0.1,0-0.1V415c0-0.6-0.4-1-1-1h-34.4c-1.1,0-2.7-4.8-2.7-12.6s1.6-12.6,2.7-12.6h34.4c0.6,0,1-0.4,1-1v-34.4c0,0,0,0,0,0
					l0,0c0,0,0,0,0,0l0,0c0,0,0-0.1,0-0.1c0,0,0,0,0-0.1c0.2-0.2,0.9-1.1,4.2-1.8c0,0,0,0,0.1,0c0.3-0.1,0.6-0.1,0.8-0.2l0.1,0
					c0.3-0.1,0.6-0.1,0.8-0.1c0,0,0.1,0,0.2,0c0.3,0,0.6-0.1,0.9-0.1c0,0,0,0,0,0c0.3,0,0.7-0.1,1-0.1l0,0c0,0,0,0,0,0
					c0.3,0,0.6-0.1,1-0.1l0.1,0c0.2,0,0.4,0,0.6,0l0.4,0c0.1,0,0.1,0,0.2,0c0.3,0,0.7,0,1,0l0.1,0
					C277,350.8,277.3,350.8,277.7,350.8 M277.7,349.8c-0.4,0-0.7,0-1.1,0c0,0-0.1,0-0.1,0c-0.3,0-0.7,0-1,0c-0.1,0-0.1,0-0.2,0
					c-0.3,0-0.7,0-1,0c0,0-0.1,0-0.1,0c-0.3,0-0.7,0-1,0.1c0,0,0,0,0,0c-0.3,0-0.7,0.1-1,0.1h0c-0.3,0-0.7,0.1-1,0.1c0,0,0,0-0.1,0
					c-0.3,0-0.6,0.1-0.9,0.1c0,0,0,0-0.1,0c-0.3,0.1-0.6,0.1-0.9,0.2c0,0,0,0,0,0c-2.4,0.5-4.2,1.2-4.9,2.2c0,0-0.1,0.1-0.1,0.2
					c0,0,0,0,0,0c0,0.1,0,0.1,0,0.2c0,0,0,0,0,0c0,0,0,0.1,0,0.1c0,0.1,0,0.1,0,0.2c0,7.7,0,20.6,0,34.4c-19,0-34.4,0-34.4,0h0
					c-5,0-5,27.1,0,27.1c7.8,0,20.6,0,34.4,0c0,19,0,34.4,0,34.4l0,0c0,0.1,0,0.2,0,0.2c0.4,2.3,7,3.5,13.5,3.5
					c6.6,0,13.1-1.2,13.5-3.5c0-0.1,0-0.2,0-0.2c0-7.7,0-20.6,0-34.4c19,0,34.4,0,34.4,0l0,0c5,0,5-27.1,0-27.1
					c-7.8,0-20.6,0-34.4,0c0-19,0-34.4,0-34.4h0v0C291.2,351,284.4,349.8,277.7,349.8L277.7,349.8z"/>
			</g>
			<path class="st6" d="M264.1,387.9l-3.6-3.6h-30.8c-0.9,0-1.8,0.2-2.8,0.8l2.8,2.8C229.7,387.9,245.1,387.9,264.1,387.9z"/>
			<path class="st6" d="M229.7,387.9L229.7,387.9l-2.8-2.8c-1.4,0.9-2.7,2.7-3.5,6.1c-0.7,2.7-1,6.4-1,10.2c0,3.8,0.4,7.4,1,10.2
				c0.8,3.4,2.2,5.2,3.5,6.1l2.8-2.8C224.7,415,224.7,387.9,229.7,387.9z"/>
			<path class="st6" d="M269.2,350.5C269.2,350.5,269.2,350.5,269.2,350.5c0.3-0.1,0.6-0.1,0.9-0.2c0,0,0,0,0.1,0
				c0.3-0.1,0.6-0.1,0.9-0.1c0,0,0,0,0.1,0c0.3,0,0.7-0.1,1-0.1h0c0.3,0,0.7-0.1,1-0.1c0,0,0,0,0,0c0.3,0,0.7-0.1,1-0.1
				c0,0,0.1,0,0.1,0c0.3,0,0.6,0,1,0c0.1,0,0.1,0,0.2,0c0.3,0,0.7,0,1,0c0,0,0.1,0,0.1,0c0.4,0,0.7,0,1.1,0c6.8,0,13.6,1.2,13.6,3.7
				l2.8-2.8c-0.9-1.4-2.7-2.7-6.1-3.5c-2.7-0.7-6.4-1-10.2-1c-3.8,0-7.5,0.4-10.2,1c-2.9,0.7-4.7,1.8-5.7,3l2.6,2.6
				C265,351.7,266.8,351,269.2,350.5z"/>
			<path class="st6" d="M325.7,387.9l2.8-2.8c-0.9-0.6-1.9-0.8-2.8-0.8h-30.8l-3.6,3.6C305,387.9,317.9,387.9,325.7,387.9z"/>
			<path class="st6" d="M291.2,353.5L291.2,353.5c0,0,0,15.4,0,34.4l3.6-3.6l0,0v-30.8c0-0.9-0.2-1.8-0.8-2.8L291.2,353.5
				L291.2,353.5z"/>
			<path class="st6" d="M264.1,353.5c0-0.1,0-0.1,0-0.2c0,0,0-0.1,0-0.1c0,0,0,0,0,0c0-0.1,0-0.1,0-0.2c0,0,0,0,0,0
				c0-0.1,0.1-0.1,0.1-0.2l-2.6-2.6c-1,1.1-1.3,2.3-1.3,3.3v30.8l3.6,3.6C264.1,374.1,264.1,361.3,264.1,353.5z"/>
			<path class="st6" d="M325.7,415L325.7,415c0,0-15.5,0-34.4,0l3.6,3.6h30.8h1.5l0.3-0.3c0.3-0.1,0.6-0.3,0.9-0.5L325.7,415
				L325.7,415z"/>
			<path class="st6" d="M291.2,449.5l2.8,2.8c0.6-0.9,0.8-1.9,0.8-2.8v-30.8l-3.6-3.6C291.2,428.9,291.2,441.7,291.2,449.5z"/>
			<path class="st6" d="M332,391.3c-0.8-3.4-2.2-5.2-3.6-6.1l-2.8,2.8c5,0,5,27.1,0,27.1l2.8,2.8c1.4-0.9,2.7-2.7,3.5-6.1
				c0.7-2.7,1-6.4,1-10.2C333,397.7,332.6,394,332,391.3z"/>
			<path class="st6" d="M291.2,449.7c-0.4,2.3-7,3.5-13.5,3.5s-13.1-1.2-13.5-3.5c0-0.1,0-0.2,0-0.2l-2.8,2.8
				c0.9,1.4,2.7,2.7,6.2,3.5c2.7,0.7,6.3,1,10.2,1c3.8,0,7.4-0.4,10.2-1c3.4-0.8,5.2-2.2,6.1-3.5l-2.8-2.8
				C291.2,449.5,291.2,449.6,291.2,449.7z"/>
			<path class="st6" d="M264.1,449.5L264.1,449.5c0,0,0-15.4,0-34.4l-3.6,3.6v30.8v0.8l0.1,0.2c0.1,0.5,0.3,1.1,0.7,1.7L264.1,449.5
				L264.1,449.5z"/>
			<path class="st6" d="M229.7,415l-2.8,2.8c1,0.6,1.9,0.8,2.8,0.8h30.8l3.6-3.6C250.3,415,237.4,415,229.7,415z"/>
		</g>
		<g class="st7">
			<path class="st9" d="M264.1,387.9l-3.6-3.6L264.1,387.9z"/>
			<polygon class="st9" points="291.2,387.9 294.8,384.3 294.8,384.3 294.8,384.3 			"/>
			<g id="Up" class="st8">
				<g>
					<path class="st6" d="M264.6,387.7v-34.2c0,0,0-0.1,0-0.1l0.1-0.2c0,0,0.1-0.1,0.1-0.1c0.5-0.8,2.1-1.5,4.5-2
						c0.3-0.1,0.6-0.1,0.9-0.2c0.4-0.1,0.7-0.1,1-0.1c0,0,0.1,0,0.2,0c0.3,0,0.6-0.1,0.9-0.1c0.3,0,0.7-0.1,1-0.1
						c0.4,0,0.7-0.1,1-0.1l2.4-0.1c0.4,0,0.7,0,1,0c7.3,0,13.1,1.4,13.1,3.2c0,0.2,0,15.9,0,34.2l-13.1,13.1L264.6,387.7z"/>
					<path class="st6" d="M277.7,350.8c8.1,0,12.6,1.6,12.6,2.7c0,0,0,0,0,0v34l-12.6,12.6l-12.6-12.6v-34c0,0,0,0,0,0l0,0
						c0,0,0,0,0,0l0,0c0,0,0-0.1,0-0.1c0,0,0,0,0-0.1c0.2-0.2,0.9-1.1,4.2-1.8c0,0,0,0,0.1,0c0.3-0.1,0.6-0.1,0.8-0.2l0.1,0
						c0.3-0.1,0.6-0.1,0.8-0.1c0,0,0.1,0,0.2,0c0.3,0,0.6-0.1,0.9-0.1c0,0,0,0,0,0c0.3,0,0.7-0.1,1-0.1l0,0c0,0,0,0,0,0
						c0.3,0,0.6-0.1,1-0.1l0.1,0c0.2,0,0.4,0,0.6,0l0.4,0c0.1,0,0.1,0,0.2,0c0.3,0,0.7,0,1,0l0.1,0
						C277,350.8,277.3,350.8,277.7,350.8 M277.7,349.8c-0.4,0-0.7,0-1.1,0c0,0-0.1,0-0.1,0c-0.3,0-0.7,0-1,0c-0.1,0-0.1,0-0.2,0
						c-0.3,0-0.7,0-1,0c0,0-0.1,0-0.1,0c-0.3,0-0.7,0-1,0.1c0,0,0,0,0,0c-0.3,0-0.7,0.1-1,0.1h0c-0.3,0-0.7,0.1-1,0.1c0,0,0,0-0.1,0
						c-0.3,0-0.6,0.1-0.9,0.1c0,0,0,0-0.1,0c-0.3,0.1-0.6,0.1-0.9,0.2c0,0,0,0,0,0c-2.4,0.5-4.2,1.2-4.9,2.2c0,0-0.1,0.1-0.1,0.2
						c0,0,0,0,0,0c0,0.1,0,0.1,0,0.2c0,0,0,0,0,0c0,0,0,0.1,0,0.1c0,0.1,0,0.1,0,0.2c0,7.7,0,20.6,0,34.4l13.6,13.6l13.6-13.6
						c0-19,0-34.4,0-34.4h0v0C291.2,351,284.4,349.8,277.7,349.8L277.7,349.8z"/>
				</g>
				<path class="st6" d="M269.2,350.5C269.2,350.5,269.2,350.5,269.2,350.5c0.3-0.1,0.6-0.1,0.9-0.2c0,0,0,0,0.1,0
					c0.3-0.1,0.6-0.1,0.9-0.1c0,0,0,0,0.1,0c0.3,0,0.7-0.1,1-0.1h0c0.3,0,0.7-0.1,1-0.1c0,0,0,0,0,0c0.3,0,0.7-0.1,1-0.1
					c0,0,0.1,0,0.1,0c0.3,0,0.6,0,1,0c0.1,0,0.1,0,0.2,0c0.3,0,0.7,0,1,0c0,0,0.1,0,0.1,0c0.4,0,0.7,0,1.1,0
					c6.8,0,13.6,1.2,13.6,3.7l2.8-2.8c-0.9-1.4-2.7-2.7-6.1-3.5c-2.7-0.7-6.4-1-10.2-1c-3.8,0-7.5,0.4-10.2,1
					c-2.9,0.7-4.7,1.8-5.7,3l2.6,2.6C265,351.7,266.8,351,269.2,350.5z"/>
				<path class="st6" d="M291.2,353.5L291.2,353.5c0,0,0,15.4,0,34.4l3.6-3.6v-30.8c0-0.9-0.2-1.8-0.8-2.8L291.2,353.5L291.2,353.5z
					"/>
				<path class="st6" d="M264.1,353.5c0-0.1,0-0.1,0-0.2c0,0,0-0.1,0-0.1c0,0,0,0,0,0c0-0.1,0-0.1,0-0.2c0,0,0,0,0,0
					c0-0.1,0.1-0.1,0.1-0.2l-2.6-2.6c-1,1.1-1.3,2.3-1.3,3.3v30.8l3.6,3.6C264.1,374.1,264.1,361.3,264.1,353.5z"/>
			</g>
			<polygon class="st9" points="294.9,418.7 291.3,415.1 291.3,415.1 			"/>
			<g id="Right" class="st8">
				<g>
					<path class="st6" d="M291.4,414.5l-13.1-13.1l13.1-13.1h34.2c1.8,0,3.2,5.7,3.2,13.1s-1.4,13.1-3.2,13.1H291.4z"/>
					<path class="st6" d="M325.7,388.9c1.1,0,2.7,4.8,2.7,12.6c0,7.8-1.6,12.6-2.7,12.6h-34l-12.6-12.6l12.6-12.6H325.7
						 M325.7,387.9c-7.8,0-20.6,0-34.4,0l-13.6,13.6l13.6,13.6c19,0,34.4,0,34.4,0l0,0C330.6,415,330.6,387.9,325.7,387.9
						L325.7,387.9z"/>
				</g>
				<path class="st6" d="M325.7,387.9l2.8-2.8c-0.9-0.6-1.9-0.8-2.8-0.8h-30.8l-3.6,3.6C305,387.9,317.9,387.9,325.7,387.9z"/>
				<path class="st6" d="M325.7,415L325.7,415c0,0-15.5,0-34.4,0l3.6,3.6h30.8h1.5l0.3-0.3c0.3-0.1,0.6-0.3,0.9-0.5L325.7,415
					L325.7,415z"/>
				<path class="st6" d="M328.4,385.2l-2.8,2.8c5,0,5,27.1,0,27.1l2.8,2.8c1.4-0.9,2.7-2.7,3.5-6.1c0.7-2.7,1-6.4,1-10.2
					c0-3.8-0.4-7.4-1-10.2C331.1,387.9,329.8,386.1,328.4,385.2z"/>
			</g>
			<g id="Down" class="st8">
				<g>
					<path class="st6" d="M277.7,452.7c-7.1,0-12.7-1.3-13-3.1c0,0,0-0.1,0-0.1c0-0.1,0-15.4,0-34.2l13.1-13.1l13.1,13.1v34.2
						c0,0,0,0.1,0,0.2C290.4,451.4,284.8,452.7,277.7,452.7z"/>
					<path class="st6" d="M277.7,402.9l12.6,12.6v34c0,0,0,0,0,0.1c-0.2,1.1-4.7,2.7-12.6,2.7c-7.9,0-12.4-1.5-12.6-2.7
						c0,0,0-0.1,0-0.1v-34L277.7,402.9 M277.7,401.5L264.1,415c0,19,0,34.4,0,34.4l0,0c0,0.1,0,0.2,0,0.2c0.4,2.3,7,3.5,13.5,3.5
						c6.6,0,13.1-1.2,13.5-3.5c0-0.1,0-0.2,0-0.2c0-7.7,0-20.6,0-34.4L277.7,401.5L277.7,401.5z"/>
				</g>
				<path class="st6" d="M291.2,449.5l2.8,2.8c0.6-0.9,0.8-1.9,0.8-2.8v-30.8l-3.6-3.6C291.2,428.9,291.2,441.7,291.2,449.5z"/>
				<path class="st6" d="M291.2,449.7c-0.4,2.3-7,3.5-13.5,3.5s-13.1-1.2-13.5-3.5c0-0.1,0-0.2,0-0.2l-2.8,2.8
					c0.9,1.4,2.7,2.7,6.2,3.5c2.7,0.7,6.3,1,10.2,1c3.8,0,7.4-0.4,10.2-1c3.4-0.8,5.2-2.2,6.1-3.5l-2.8-2.8
					C291.2,449.5,291.2,449.6,291.2,449.7z"/>
				<path class="st6" d="M264.1,449.5L264.1,449.5c0,0,0-15.4,0-34.4l-3.6,3.6v30.8v0.8l0.1,0.2c0.1,0.5,0.3,1.1,0.7,1.7
					L264.1,449.5L264.1,449.5z"/>
			</g>
			<g id="left" class="st8">
				<g>
					<path class="st6" d="M229.7,414.5c-1.8,0-3.2-5.7-3.2-13.1s1.4-13.1,3.2-13.1h34.2l13.1,13.1l-13.1,13.1H229.7z"/>
					<path class="st6" d="M263.7,388.9l12.6,12.6L263.7,414h-34c-1.1,0-2.7-4.8-2.7-12.6s1.6-12.6,2.7-12.6L263.7,388.9
						 M264.1,387.9c-19,0-34.4,0-34.4,0h0c-5,0-5,27.1,0,27.1c7.8,0,20.6,0,34.4,0l13.6-13.6L264.1,387.9L264.1,387.9z"/>
				</g>
				<path class="st6" d="M264.1,387.9l-3.6-3.6h-30.8c-0.9,0-1.8,0.2-2.8,0.8l2.8,2.8C229.7,387.9,245.1,387.9,264.1,387.9z"/>
				<path class="st6" d="M229.7,387.9L229.7,387.9l-2.8-2.8c-1.4,0.9-2.7,2.7-3.5,6.1c-0.7,2.7-1,6.4-1,10.2c0,3.8,0.4,7.4,1,10.2
					c0.8,3.4,2.2,5.2,3.5,6.1l2.8-2.8C224.7,415,224.7,387.9,229.7,387.9z"/>
				<path class="st6" d="M229.7,415l-2.8,2.8c1,0.6,1.9,0.8,2.8,0.8h30.8l3.6-3.6C250.3,415,237.4,415,229.7,415z"/>
			</g>
		</g>
	</g>
	<g>
		<g id="Menu_Key" class="st5">
			<g>
				<path class="st10" d="M448.9,280.4c0,10.4-8.4,18.8-18.8,18.8c-10.4,0-18.8-8.4-18.8-18.8c0-10.4,8.4-18.8,18.8-18.8
					C440.5,261.6,448.9,270,448.9,280.4z"/>
			</g>
			<g>
				<path class="st10" d="M446.2,280.4c0,8.9-7.2,16.1-16.1,16.1c-8.9,0-16.1-7.2-16.1-16.1c0-8.9,7.2-16.1,16.1-16.1
					C439,264.3,446.2,271.5,446.2,280.4z"/>
				<g>
					<rect x="422.9" y="275.7" class="st10" width="14.4" height="1.6"/>
					<rect x="422.9" y="279.7" class="st10" width="14.4" height="1.6"/>
					<rect x="422.9" y="283.5" class="st10" width="14.4" height="1.5"/>
				</g>
			</g>
			<g id="Menu_Pressed" class="st7">
				<path class="st11" d="M446.2,280.4c0,8.9-7.2,16.1-16.1,16.1c-8.9,0-16.1-7.2-16.1-16.1c0-8.9,7.2-16.1,16.1-16.1
					C439,264.3,446.2,271.5,446.2,280.4z"/>
				<g class="st8">
					<rect x="422.9" y="275.7" class="st10" width="14.4" height="1.6"/>
					<rect x="422.9" y="279.7" class="st10" width="14.4" height="1.6"/>
					<rect x="422.9" y="283.5" class="st10" width="14.4" height="1.5"/>
				</g>
			</g>
		</g>
		<g id="Switcher_Key" class="st5">
			<g>
				<path class="st10" d="M340.9,280.4c0,10.4-8.4,18.8-18.8,18.8c-10.4,0-18.8-8.4-18.8-18.8c0-10.4,8.4-18.8,18.8-18.8
					C332.5,261.6,340.9,270,340.9,280.4z"/>
			</g>
			<g>
				<path class="st10" d="M338.2,280.4c0,8.9-7.2,16.1-16.1,16.1c-8.9,0-16.1-7.2-16.1-16.1c0-8.9,7.2-16.1,16.1-16.1
					C331,264.3,338.2,271.5,338.2,280.4z"/>
				<g>
					<polygon class="st10" points="319.6,280.3 316.6,280.3 316.6,276.5 322,276.5 322,277.8 323.8,277.8 323.8,274.7 315,274.7 
						315,282.1 319.6,282.1 					"/>
					<path class="st10" d="M320.4,278.4v7.6h9v-7.6H320.4z M327.5,284.2H322v-3.9h5.5V284.2z"/>
				</g>
			</g>
		</g>
	</g>
	<g id="Left_Stick" class="st5">
		<g>
			<path class="st12" d="M185.5,351.5c-37.3,0-67.7-30.4-67.7-67.7s30.4-67.7,67.7-67.7c37.3,0,67.7,30.4,67.7,67.7
				S222.8,351.5,185.5,351.5z"/>
		</g>
		<path class="st12" d="M241.6,279.9c0,31-25.1,56.1-56.1,56.1c-31,0-56.1-25.1-56.1-56.1c0-31,25.1-56.1,56.1-56.1
			C216.5,223.8,241.6,248.9,241.6,279.9z"/>
	</g>
	<g id="Right_Stick" class="st5">
		<g>
			<path class="st12" d="M473,465.5c-37.3,0-67.7-30.4-67.7-67.7c0-37.3,30.4-67.7,67.7-67.7c37.3,0,67.7,30.4,67.7,67.7
				C540.7,435.1,510.4,465.5,473,465.5z"/>
		</g>
		<path class="st12" d="M529.2,393.8c0,31-25.1,56.1-56.1,56.1c-31,0-56.1-25.1-56.1-56.1c0-31,25.1-56.1,56.1-56.1
			C504,337.7,529.2,362.8,529.2,393.8z"/>
	</g>
	<g id="Button_Base" class="st5">
		<g id="A">
			<path class="st12" d="M566.8,355.3c-13.9,0-25.2-11.3-25.2-25.2c0-13.9,11.3-25.2,25.2-25.2c13.9,0,25.2,11.3,25.2,25.2
				C592,344,580.7,355.3,566.8,355.3z"/>
			<path class="st12" d="M566.8,306.4c13.1,0,23.7,10.6,23.7,23.7c0,13.1-10.6,23.7-23.7,23.7c-13.1,0-23.7-10.6-23.7-23.7
				C543.1,317,553.7,306.4,566.8,306.4 M566.8,303.4c-14.7,0-26.7,12-26.7,26.7c0,14.7,12,26.7,26.7,26.7c14.7,0,26.7-12,26.7-26.7
				C593.5,315.4,581.5,303.4,566.8,303.4L566.8,303.4z"/>
		</g>
		<g id="Y">
			<path class="st12" d="M566.8,254.2c-13.9,0-25.2-11.3-25.2-25.2c0-13.9,11.3-25.2,25.2-25.2c13.9,0,25.2,11.3,25.2,25.2
				C592,242.9,580.7,254.2,566.8,254.2z"/>
			<path class="st12" d="M566.8,205.3c13.1,0,23.7,10.6,23.7,23.7c0,13.1-10.6,23.7-23.7,23.7c-13.1,0-23.7-10.6-23.7-23.7
				C543.1,215.9,553.7,205.3,566.8,205.3 M566.8,202.3c-14.7,0-26.7,12-26.7,26.7c0,14.7,12,26.7,26.7,26.7
				c14.7,0,26.7-12,26.7-26.7C593.5,214.3,581.5,202.3,566.8,202.3L566.8,202.3z"/>
		</g>
		<g id="B">
			<path class="st12" d="M617.3,304.7c-13.9,0-25.2-11.3-25.2-25.2c0-13.9,11.3-25.2,25.2-25.2c13.9,0,25.2,11.3,25.2,25.2
				C642.5,293.4,631.2,304.7,617.3,304.7z"/>
			<path class="st12" d="M617.3,255.8c13.1,0,23.7,10.6,23.7,23.7c0,13.1-10.6,23.7-23.7,23.7c-13.1,0-23.7-10.6-23.7-23.7
				C593.6,266.4,604.2,255.8,617.3,255.8 M617.3,252.8c-14.7,0-26.7,12-26.7,26.7c0,14.7,12,26.7,26.7,26.7
				c14.7,0,26.7-12,26.7-26.7C644,264.8,632,252.8,617.3,252.8L617.3,252.8z"/>
		</g>
		<g id="X">
			<path class="st12" d="M516.2,304.7c-13.9,0-25.2-11.3-25.2-25.2c0-13.9,11.3-25.2,25.2-25.2c13.9,0,25.2,11.3,25.2,25.2
				C541.4,293.4,530.1,304.7,516.2,304.7z"/>
			<path class="st12" d="M516.2,255.8c13.1,0,23.7,10.6,23.7,23.7c0,13.1-10.6,23.7-23.7,23.7c-13.1,0-23.7-10.6-23.7-23.7
				C492.5,266.4,503.1,255.8,516.2,255.8 M516.2,252.8c-14.7,0-26.7,12-26.7,26.7c0,14.7,12,26.7,26.7,26.7
				c14.7,0,26.7-12,26.7-26.7C542.9,264.8,530.9,252.8,516.2,252.8L516.2,252.8z"/>
		</g>
	</g>
	<g class="st5">
		<g>
			<g>
				<path class="st1" d="M314.8,238c-10.8,0-26.9-19.4-42.5-38.2c-3.6-4.3-7.3-8.7-10.9-13l14.8-27.5c16.8,1.8,95.6,2.7,99.1,2.8
					c3.5,0,82.5-1,99.2-2.8l14.8,27.5c-3.7,4.2-7.4,8.7-11,13.1c-15.6,18.7-31.7,38.1-42.4,38.1H314.8z"/>
				<path class="st2" d="M473.1,162l13.2,24.5c-3.3,3.9-6.7,7.9-9.9,11.8c-7.9,9.5-16.1,19.4-23.5,26.5
					c-9.2,8.9-14.3,10.7-17.1,10.7h-60.5h-60.5c-2.7,0-7.9-1.9-17.1-10.8c-7.4-7.1-15.6-17-23.5-26.5c-3.2-3.9-6.5-7.9-9.8-11.7
					l13.2-24.5c20.1,1.7,94.3,2.6,97.7,2.6l0.1,0l0.1,0C378.8,164.6,453,163.7,473.1,162 M475.9,156.6c-11.6,1.9-100.6,3-100.6,3
					s-88.9-1.1-100.5-3l-16.4,30.5c20.2,23.3,41.6,53.3,56.4,53.3c15.1,0,60.5,0,60.5,0s45.4,0,60.5,0c14.9,0,36.2-30,56.5-53.3
					L475.9,156.6L475.9,156.6z"/>
			</g>
			<g>
				<path class="st1" d="M375.3,157.1c-1.9,0-76.8-1-96.6-2.6l0.9-1.7c1,0.1,2,0.2,2.9,0.2h184.3c1.3,0,2.7-0.1,4.1-0.4l1,1.8
					C452.2,156.2,377.2,157.1,375.3,157.1z"/>
				<path class="st2" d="M472.2,149.9c-1.9,0.5-3.7,0.7-5.4,0.7c-21.9,0-92.2,0-92.2,0s-70.3,0-92.2,0c-1.4,0-2.8-0.2-4.3-0.5
					l-3.5,6.5c11.6,1.9,100.5,3,100.5,3s88.9-1.1,100.6-3L472.2,149.9L472.2,149.9z"/>
			</g>
		</g>
		<g id="RB_1_">
			<g>
				<path class="st1" d="M634.4,188.3c-31-14.8-79.9-30.5-103.7-30.5c-2.4,0-4.6,0.2-6.4,0.5c-9.7,1.9-20.5,12.3-30.1,22.9l-13-24.3
					c1.3-0.8,2.7-1.8,4.4-3c6.4-4.4,15.1-10.5,25.8-13.8c1.7-0.5,3.9-0.8,6.7-0.8c29.7,0,103.6,31.4,111.7,34.9
					c1.5,2.4,2.1,5,2.7,7.7C633,184,633.5,186.1,634.4,188.3z"/>
				<path class="st2" d="M518.1,141.8L518.1,141.8c28.5,0,98.8,29.6,109.9,34.3c1,1.9,1.5,4,2.1,6.4c0.1,0.4,0.2,0.8,0.3,1.2
					c-31.3-14.2-76.8-28.4-99.6-28.4c-2.6,0-4.9,0.2-6.9,0.6c-8,1.5-16.8,7.9-29.1,21.1l-10.3-19.2c0.8-0.5,1.6-1.1,2.5-1.7
					c6.3-4.3,14.8-10.2,25.2-13.5C513.6,142,515.6,141.8,518.1,141.8 M518.1,136.8c-2.9,0-5.4,0.3-7.4,0.9
					c-15.6,4.9-27.2,15.3-32.8,18.2l15.9,29.6c11.2-12.7,21.9-23,31.1-24.8c1.7-0.3,3.7-0.5,5.9-0.5c24.6,0,80.8,18.3,111.5,34.8
					c0,0,0,0,0,0c-8.6-7.6-5.9-15.5-10.8-22.9C630.6,171.8,550.1,136.8,518.1,136.8L518.1,136.8z M630.8,171.2
					c0.1,0.1,0.2,0.3,0.3,0.4C631,171.5,630.9,171.4,630.8,171.2L630.8,171.2z M631.1,171.7c0.1,0.2,0.3,0.4,0.4,0.5c0,0,0,0,0,0
					C631.4,172,631.2,171.8,631.1,171.7L631.1,171.7z M642.3,195.1C642.3,195.1,642.3,195.1,642.3,195.1
					C642.3,195.1,642.3,195.1,642.3,195.1L642.3,195.1z"/>
			</g>
			<g>
				<path class="st1" d="M608.6,160.1c-23.5-9.3-59.2-22.2-81.9-25.2C555.7,136.7,587,149.4,608.6,160.1z M477.8,150.6
					c5.4-2.1,10.9-5.3,15.9-8.2c5.8-3.3,11.3-6.5,14.7-7c0.6-0.1,1.2-0.1,1.8-0.2c-0.1,0-0.2,0.1-0.3,0.1
					c-11.4,3.6-20.9,10.1-27.2,14.5c-1.4,1-2.8,1.9-3.9,2.7L477.8,150.6z"/>
				<path class="st2" d="M520.1,132.2c-4.1,0-8.1,0.2-12,0.8c-7.6,1-21.6,12.3-33.8,16.3l3.6,6.7c5.6-2.9,17.3-13.4,32.8-18.2
					c2-0.6,4.5-0.9,7.4-0.9c32.2,0,113.4,35.4,113.4,35.4c-0.2-0.3-0.5-0.7-0.7-1c0,0-0.1-0.1-0.1-0.1c-0.1-0.1-0.2-0.2-0.3-0.4
					c0-0.1-0.1-0.1-0.1-0.2c-0.1-0.1-0.2-0.2-0.3-0.3c-0.1-0.1-0.1-0.1-0.2-0.2c-0.1-0.1-0.2-0.2-0.3-0.3c-0.1-0.1-0.1-0.1-0.2-0.2
					c-0.1-0.1-0.2-0.2-0.3-0.3c-0.1-0.1-0.1-0.1-0.2-0.2c-0.1-0.1-0.2-0.2-0.3-0.3c-0.1-0.1-0.2-0.1-0.2-0.2
					c-0.1-0.1-0.2-0.2-0.3-0.3c-0.1-0.1-0.1-0.1-0.2-0.2c-0.1-0.1-0.2-0.2-0.3-0.3c-0.1-0.1-0.2-0.1-0.3-0.2
					c-0.1-0.1-0.2-0.2-0.3-0.3c-0.1-0.1-0.2-0.1-0.3-0.2c-0.1-0.1-0.2-0.2-0.4-0.3c-0.1-0.1-0.2-0.1-0.3-0.2
					c-0.1-0.1-0.3-0.2-0.4-0.3c-0.1-0.1-0.2-0.1-0.3-0.2c-0.1-0.1-0.3-0.2-0.4-0.3c-0.1-0.1-0.2-0.1-0.3-0.2
					c-0.2-0.1-0.3-0.2-0.5-0.3c-0.1-0.1-0.2-0.1-0.3-0.2c-0.2-0.1-0.4-0.2-0.5-0.3c-0.1-0.1-0.2-0.1-0.3-0.2
					c-0.3-0.2-0.6-0.3-0.8-0.5C605.7,155.4,559.9,132.2,520.1,132.2L520.1,132.2z"/>
			</g>
		</g>
		<g id="LB_1_">
			<g>
				<path class="st1" d="M140.3,160.4c22.2-11,54.7-24.2,84.4-25.5C201.5,137.6,164.3,151,140.3,160.4z M271.8,152.5
					c-1.1-0.7-2.5-1.7-3.9-2.7c-1.3-0.9-2.7-1.9-4.3-2.9c3,1.6,6,3,8.9,4.1L271.8,152.5z M247.2,137.7c-1.9-0.8-3.9-1.6-5.9-2.2
					C242.9,135.8,244.9,136.6,247.2,137.7z"/>
				<path class="st2" d="M229.3,132.2c-39.9,0-85.7,23.1-102.2,32.1c-0.3,0.2-0.6,0.3-0.8,0.5c-0.1,0.1-0.2,0.1-0.2,0.2
					c-0.2,0.1-0.4,0.2-0.5,0.3c-0.1,0.1-0.2,0.1-0.3,0.2c-0.1,0.1-0.3,0.2-0.5,0.3c-0.1,0-0.2,0.1-0.3,0.2c-0.1,0.1-0.3,0.2-0.4,0.3
					c-0.1,0.1-0.2,0.1-0.3,0.2c-0.1,0.1-0.3,0.2-0.4,0.3c-0.1,0.1-0.2,0.1-0.3,0.2c-0.1,0.1-0.3,0.2-0.4,0.3
					c-0.1,0.1-0.2,0.1-0.2,0.2c-0.1,0.1-0.2,0.2-0.4,0.3c-0.1,0.1-0.1,0.1-0.2,0.2c-0.1,0.1-0.2,0.2-0.3,0.3
					c-0.1,0.1-0.1,0.1-0.2,0.2c-0.1,0.1-0.2,0.2-0.3,0.3c-0.1,0.1-0.1,0.1-0.2,0.2c-0.1,0.1-0.2,0.2-0.3,0.3c-0.1,0-0.1,0.1-0.2,0.2
					c-0.1,0.1-0.2,0.2-0.3,0.3c0,0.1-0.1,0.1-0.1,0.2c-0.1,0.1-0.2,0.2-0.3,0.3c0,0-0.1,0.1-0.1,0.1c-0.1,0.1-0.2,0.3-0.3,0.4
					c0,0-0.1,0.1-0.1,0.1c-0.1,0.1-0.2,0.3-0.3,0.4c0,0,0,0.1-0.1,0.1c-0.1,0.1-0.2,0.3-0.3,0.4c0,0,0,0,0,0
					c-0.1,0.2-0.2,0.3-0.3,0.5c0,0,82.2-35.3,114.5-35.3c2.9,0,5.4,0.3,7.5,0.9c15.5,4.9,27.2,15.3,32.8,18.2l3.4-6.3
					c-12.4-3.6-27-15.6-34.9-16.6C237.4,132.5,233.4,132.2,229.3,132.2L229.3,132.2z"/>
			</g>
			<g>
				<g>
					<path class="st1" d="M273.3,156.2c0.2,0.1,0.3,0.1,0.5,0.2C273.6,156.3,273.4,156.3,273.3,156.2z"/>
					<path class="st2" d="M273.3,156.2c0.2,0.1,0.3,0.1,0.5,0.2C273.6,156.3,273.4,156.3,273.3,156.2L273.3,156.2z"/>
				</g>
				<g>
					<path class="st1" d="M115,188.3c0.9-2.2,1.4-4.3,1.9-6.4c0.7-2.8,1.3-5.4,2.8-7.8c8.7-3.7,83-34.8,112.8-34.8
						c2.7,0,5,0.3,6.7,0.8c10.7,3.3,19.4,9.4,25.8,13.8c1.7,1.2,3.1,2.2,4.4,3l-13,24.3c-13.1-14.5-22.2-21.4-30.1-22.9
						c-1.7-0.3-3.8-0.5-6.2-0.5C197.9,157.8,148.1,172.5,115,188.3z"/>
					<path class="st2" d="M232.5,136.8l0,5c2.5,0,4.5,0.2,6,0.7c10.3,3.2,18.9,9.2,25.1,13.5c0.9,0.6,1.7,1.2,2.5,1.7l-10.3,19.2
						c-12.2-13.1-21.1-19.5-29.1-21.1c-1.9-0.4-4.1-0.6-6.7-0.6c-22.9,0-69.6,14.3-101,28.4c0.1-0.4,0.2-0.8,0.3-1.2
						c0.6-2.4,1.1-4.5,2.1-6.4c11.4-4.8,82.5-34.3,111.1-34.3V136.8 M232.5,136.8c-32.2,0-113.9,35-114.5,35.3
						c-5,7.4-2.2,15.3-10.8,23c0,0,0,0,0,0c30.4-16.4,88.5-34.8,113-34.8c2.2,0,4.1,0.1,5.7,0.5c9.1,1.8,19.9,12.1,31.1,24.8
						l15.9-29.6c-5.6-2.9-17.3-13.4-32.8-18.2C238,137.1,235.4,136.8,232.5,136.8L232.5,136.8z M272.8,155.9L272.8,155.9
						C272.8,155.9,272.8,156,272.8,155.9C272.8,156,272.8,155.9,272.8,155.9L272.8,155.9z M272.8,156C272.8,156,272.8,156,272.8,156
						C272.8,156,272.8,156,272.8,156L272.8,156z M107.1,195.1C107.1,195.1,107.1,195.1,107.1,195.1
						C107.1,195.1,107.1,195.1,107.1,195.1L107.1,195.1z M107.1,195.1C107.1,195.1,107.1,195.1,107.1,195.1
						C107.1,195.1,107.1,195.1,107.1,195.1L107.1,195.1z"/>
				</g>
				<g>
					<path class="st1" d="M272.8,156c0.2,0.1,0.3,0.2,0.5,0.2C273.1,156.1,273,156,272.8,156z"/>
					<path class="st2" d="M272.8,156c0.2,0.1,0.3,0.2,0.5,0.2C273.1,156.1,273,156,272.8,156L272.8,156z"/>
				</g>
			</g>
			<path class="st12" d="M257.7,186.3c0.2,0.3,0.5,0.6,0.7,0.8l16.4-30.5l3.5-6.5c-0.3-0.1-0.7-0.1-1-0.2c-0.3-0.1-0.7-0.2-1-0.3
				l-3.4,6.3l-15.9,29.6C257.2,185.8,257.4,186.1,257.7,186.3L257.7,186.3"/>
		</g>
		<g>
			<path class="st1" d="M477.8,155.9l-3.6-6.7c-0.3,0.1-0.7,0.2-1,0.3c-0.3,0.1-0.7,0.2-1,0.3l3.6,6.8l16.4,30.5
				c0.2-0.3,0.5-0.5,0.7-0.8c0.2-0.3,0.5-0.5,0.7-0.8L477.8,155.9z"/>
			<path class="st2" d="M474.3,149.3c-0.3,0.1-0.7,0.2-1,0.3c-0.3,0.1-0.7,0.2-1,0.3l3.6,6.8l16.4,30.5c0.2-0.3,0.5-0.5,0.7-0.8
				c0.2-0.3,0.5-0.5,0.7-0.8l-15.9-29.6L474.3,149.3L474.3,149.3z"/>
		</g>
		<g>
			<path class="st1" d="M356.6,172.4L356.6,172.4L356.6,172.4z"/>
			<polygon class="st2" points="356.6,172.4 356.6,172.4 356.6,172.4 			"/>
		</g>
	</g>
	<g class="st13">
		<g>
			
				<image style="overflow:visible;opacity:0.75;enable-background:new    ;" width="102" height="102" xlink:href="D55DA038.png"  transform="matrix(1 0 0 1 324.2354 149.4111)">
			</image>
			<g>
				<path class="st6" d="M407.6,200.4c0,18-14.6,32.6-32.6,32.6c-18,0-32.6-14.6-32.6-32.6c0-18,14.6-32.6,32.6-32.6
					C393,167.8,407.6,182.4,407.6,200.4z"/>
			</g>
		</g>
		<path class="st6" d="M384,186c0,0,8.9-9.4,13.8-8.9c0,0,0,0,0,0c-0.7-0.7-1.5-1.4-2.3-2c0,0,0,0,0,0c-0.4-0.3-0.8-0.6-1.2-0.9
			c0,0,0,0-0.1-0.1c-0.4-0.3-0.8-0.5-1.2-0.8c0,0,0,0,0,0c-0.4-0.1-0.8-0.1-1.2-0.2c-5.2-0.5-16.9,4.5-16.9,4.5s-11.6-5-16.9-4.5
			c-0.4,0-0.8,0.1-1.2,0.2c0,0,0,0,0,0c-0.4,0.3-0.8,0.6-1.2,0.8c0,0,0,0-0.1,0c-0.4,0.3-0.8,0.6-1.2,0.9c0,0,0,0,0,0
			c-0.8,0.6-1.5,1.3-2.3,2v0c4.8-0.6,13.8,8.9,13.8,8.9s-17.7,20.9-17,34.1c1.1,1.4,2.3,2.8,3.6,4c-0.4-12,22.3-30.1,22.3-30.1
			s22.8,18.1,22.3,30.1c1.3-1.2,2.5-2.6,3.6-4c0,0,0,0,0,0C401.7,206.9,384,186,384,186z"/>
	</g>
	<g>
		<g>
			<g>
				<path class="st1" d="M547.8,115.5L550,12c0.6,0.2,1.2,0.5,1.9,0.7c10,3.8,33.4,12.7,43.8,109.2L547.8,115.5z"/>
				<path class="st2" d="M552.4,15.7c4.9,2,11.8,5.5,19,18.1c9.8,17.2,17,45.8,21.4,85.3l-42.5-5.8L552.4,15.7 M547.6,7.7l-2.3,110
					l53.3,7.2c-12.1-116.8-43-111-49.7-116.3C548.4,8.3,548,8,547.6,7.7L547.6,7.7z"/>
			</g>
			<g>
				<path class="st1" d="M545.6,115.3c-6.8-0.8-24.5-2.8-33.4-4.5c2.6-49.7,0-89-0.1-91.2v-1.1c0.1-4.6,1.6-12.4,9.8-12.7
					c2.6-0.1,4.7-0.1,6.5-0.1c8,0,12.8,1,16.9,3.5c0.4,5.1,1.8,26.2,1.1,58.3C545.8,90.6,545.6,108.6,545.6,115.3z"/>
				<path class="st2" d="M528.3,8.1c6.9,0,11,0.7,14.5,2.5c0.5,6.8,1.6,27,1,56.8c-0.4,20.5-0.6,37-0.7,45.1
					c-7.3-0.8-20.3-2.4-28.3-3.8c2.4-48.3,0-86.2-0.2-89.2v-1c0-1.2,0.3-4.2,1.5-6.7c1.2-2.4,3-3.5,5.8-3.6
					C524.5,8.2,526.5,8.1,528.3,8.1 M528.3,3.1c-2,0-4.2,0.1-6.6,0.1c-10.8,0.4-12.1,11.4-12.2,15.2v1.2c0,0,2.9,40.7,0,93.1
					c9.9,2.3,38.5,5.3,38.5,5.3s0-20.9,0.7-50.6c0.8-37.5-1.2-59.8-1.2-59.8C542.4,4.1,536.7,3.1,528.3,3.1L528.3,3.1z"/>
			</g>
		</g>
		<g>
			<g>
				<path class="st1" d="M153.8,122c10.5-96.6,33.8-105.4,43.8-109.2c0.7-0.2,1.3-0.5,1.9-0.7l2.2,103.4L153.8,122z"/>
				<path class="st2" d="M197.1,15.7l2.1,97.6l-42.5,5.8c4.5-39.5,11.7-68.1,21.4-85.3C185.2,21.2,192.1,17.6,197.1,15.7 M201.9,7.7
					c-0.4,0.3-0.8,0.6-1.2,0.9c-6.8,5.3-37.6-0.5-49.7,116.3l53.2-7.2L201.9,7.7L201.9,7.7z"/>
			</g>
			<g>
				<path class="st1" d="M203.9,115.3c0-6.7-0.2-24.7-0.7-47.9c-0.7-32.1,0.7-53.2,1.1-58.3c4.1-2.5,8.8-3.5,16.8-3.5
					c1.8,0,3.9,0,6.5,0.1c8.2,0.3,9.6,8.1,9.8,12.8l0,1.1c-0.1,2.2-2.7,41.4-0.1,91.2C228.4,112.5,210.7,114.5,203.9,115.3z"/>
				<path class="st2" d="M221.1,3.1v5c1.8,0,3.8,0,6.4,0.1c2.8,0.1,4.6,1.2,5.8,3.6c1.2,2.4,1.5,5.4,1.5,6.7v1
					c-0.2,3-2.6,40.9-0.2,89.2c-8.1,1.4-21,3-28.3,3.8c-0.1-8.2-0.2-24.6-0.7-45.1c-0.6-29.7,0.5-50,1-56.8
					c3.4-1.8,7.6-2.5,14.5-2.5L221.1,3.1 M221.1,3.1c-8.4,0-14.1,1-19.2,4.6c0,0-2,22.3-1.2,59.8c0.6,29.7,0.7,50.6,0.7,50.6
					s28.6-3,38.5-5.3c-2.9-52.4,0-93.1,0-93.1v-1.2c-0.1-3.8-1.4-14.8-12.2-15.2C225.3,3.2,223.2,3.1,221.1,3.1L221.1,3.1z"/>
			</g>
		</g>
	</g>
	<g id="Dpad_00000030468455525155840890000014207807740936628918_" class="st14">
		<g>
			<path class="st15" d="M277.7,462.1c-33.4,0-60.6-27.2-60.6-60.6c0-33.4,27.2-60.6,60.6-60.6c33.4,0,60.6,27.2,60.6,60.6
				C338.3,434.9,311.1,462.1,277.7,462.1z"/>
			<g>
				<path class="st15" d="M277.7,341.9c32.9,0,59.6,26.7,59.6,59.6c0,32.9-26.7,59.6-59.6,59.6c-32.9,0-59.6-26.7-59.6-59.6
					C218,368.6,244.8,341.9,277.7,341.9 M277.7,339.9c-34,0-61.6,27.6-61.6,61.6c0,34,27.6,61.6,61.6,61.6c34,0,61.6-27.6,61.6-61.6
					C339.3,367.4,311.7,339.9,277.7,339.9L277.7,339.9z"/>
			</g>
		</g>
		<g class="st7">
			<g class="st8">
				<path class="st15" d="M291.2,353.5L291.2,353.5c0-5-27.1-5-27.1,0c0,23.8,0,96,0,96l0,0l0,0c0,5,27.1,5,27.1,0
					C291.2,425.6,291.2,353.5,291.2,353.5L291.2,353.5z"/>
			</g>
			<g class="st8">
				<path class="st15" d="M229.7,387.9L229.7,387.9c-5,0-5,27.1,0,27.1c23.9,0,96,0,96,0l0,0l0,0c5,0,5-27.1,0-27.1
					C301.8,387.9,229.7,387.9,229.7,387.9L229.7,387.9z"/>
			</g>
		</g>
		<g class="st7">
			<g class="st8">
				<path class="st15" d="M277.7,349.8c6.8,0,13.6,1.2,13.6,3.7v0h0c0,0,0,15.4,0,34.4c13.8,0,26.7,0,34.4,0c5,0,5,27.1,0,27.1l0,0
					l0,0c0,0-15.5,0-34.4,0c0,13.8,0,26.7,0,34.4c0,2.5-6.8,3.7-13.6,3.7c-6.8,0-13.6-1.2-13.6-3.7l0,0l0,0c0,0,0-15.4,0-34.4
					c-13.8,0-26.7,0-34.4,0c-5,0-5-27.1,0-27.1h0c0,0,15.5,0,34.4,0c0-13.8,0-26.7,0-34.4C264.1,351,270.9,349.8,277.7,349.8
					 M277.7,346.2c-3.8,0-7.5,0.4-10.2,1c-5.8,1.4-7,4.2-7,6.3v30.8h-30.8c-2.1,0-4.9,1.2-6.3,7c-0.7,2.7-1,6.4-1,10.2
					c0,3.8,0.4,7.4,1,10.2c1.4,5.8,4.2,7,6.3,7h30.8v30.8v0.8l0.1,0.2c0.4,1.9,2.1,4,6.9,5.2c2.7,0.7,6.3,1,10.2,1
					c3.8,0,7.4-0.4,10.2-1c5.8-1.4,7-4.2,7-6.3v-30.8h30.8h1.5l0.3-0.3c1.7-0.7,3.4-2.5,4.5-6.6c0.7-2.7,1-6.4,1-10.2
					c0-3.8-0.4-7.4-1-10.2c-1.4-5.8-4.2-7-6.3-7h-30.8v-30.8c0-2.1-1.2-4.9-7-6.3C285.1,346.5,281.5,346.2,277.7,346.2L277.7,346.2z
					"/>
			</g>
			<line class="st16" x1="287.6" y1="357.1" x2="294.8" y2="349.9"/>
			<line class="st16" x1="267.8" y1="356.2" x2="260.9" y2="349.3"/>
			<line class="st16" x1="322.3" y1="391.3" x2="329" y2="384.6"/>
			<line class="st16" x1="322.8" y1="412.2" x2="328.5" y2="417.9"/>
			<line class="st16" x1="286.7" y1="392.5" x2="295.8" y2="383.4"/>
			<line class="st16" x1="286.1" y1="409.9" x2="296.3" y2="420.2"/>
			<line class="st16" x1="287.5" y1="445.8" x2="294.9" y2="453.2"/>
			<line class="st16" x1="268.5" y1="445.1" x2="259.7" y2="453.9"/>
			<line class="st16" x1="269.6" y1="409.6" x2="258.6" y2="420.5"/>
			<line class="st16" x1="270.3" y1="394.2" x2="257.9" y2="381.7"/>
			<line class="st16" x1="233.8" y1="411" x2="225.6" y2="419.1"/>
			<line class="st16" x1="233.4" y1="391.6" x2="226" y2="384.2"/>
		</g>
		<g>
			<g>
				<path class="st15" d="M277.7,452.7c-7.1,0-12.7-1.3-13-3.1c0,0,0-0.1,0-0.1c0-0.1,0-15.5,0-34.4c0-0.3-0.2-0.5-0.5-0.5h-34.4
					c-1.8,0-3.2-5.7-3.2-13.1s1.4-13.1,3.2-13.1h34.4c0.3,0,0.5-0.2,0.5-0.5v-34.4c0,0,0-0.1,0-0.1l0.1-0.2c0,0,0.1-0.1,0.1-0.1
					c0.5-0.8,2.1-1.5,4.5-2c0.3-0.1,0.6-0.1,0.9-0.2c0.4-0.1,0.7-0.1,1-0.1c0,0,0.1,0,0.2,0c0.3,0,0.6-0.1,0.9-0.1
					c0.3,0,0.7-0.1,1-0.1c0.4,0,0.7-0.1,1-0.1l2.4-0.1c0.4,0,0.7,0,1,0c7.3,0,13.1,1.4,13.1,3.2c0,0.2,0,16,0,34.4
					c0,0.3,0.2,0.5,0.5,0.5h34.4c1.8,0,3.2,5.7,3.2,13.1s-1.4,13.1-3.2,13.1h-34.4c-0.3,0-0.5,0.2-0.5,0.5v34.4c0,0,0,0.1,0,0.2
					C290.4,451.4,284.8,452.7,277.7,452.7z"/>
				<path class="st15" d="M277.7,350.8c8.1,0,12.6,1.6,12.6,2.7c0,0,0,0,0,0v34.4c0,0.6,0.4,1,1,1h34.4c1.1,0,2.7,4.8,2.7,12.6
					c0,7.8-1.6,12.6-2.7,12.6h-34.4c-0.6,0-1,0.4-1,1v34.4c0,0,0,0,0,0.1c-0.2,1.1-4.7,2.7-12.6,2.7c-7.9,0-12.4-1.5-12.6-2.7
					c0,0,0-0.1,0-0.1v-34.4c0-0.6-0.4-1-1-1h-34.4c-1.1,0-2.7-4.8-2.7-12.6s1.6-12.6,2.7-12.6h34.4c0.6,0,1-0.4,1-1v-34.4
					c0,0,0,0,0,0l0,0c0,0,0,0,0,0l0,0c0,0,0-0.1,0-0.1c0,0,0,0,0-0.1c0.2-0.2,0.9-1.1,4.2-1.8c0,0,0,0,0.1,0
					c0.3-0.1,0.6-0.1,0.8-0.2l0.1,0c0.3-0.1,0.6-0.1,0.8-0.1c0,0,0.1,0,0.2,0c0.3,0,0.6-0.1,0.9-0.1c0,0,0,0,0,0
					c0.3,0,0.7-0.1,1-0.1l0,0c0,0,0,0,0,0c0.3,0,0.6-0.1,1-0.1l0.1,0c0.2,0,0.4,0,0.6,0l0.4,0c0.1,0,0.1,0,0.2,0c0.3,0,0.7,0,1,0
					l0.1,0C277,350.8,277.3,350.8,277.7,350.8 M277.7,349.8c-0.4,0-0.7,0-1.1,0c0,0-0.1,0-0.1,0c-0.3,0-0.7,0-1,0
					c-0.1,0-0.1,0-0.2,0c-0.3,0-0.7,0-1,0c0,0-0.1,0-0.1,0c-0.3,0-0.7,0-1,0.1c0,0,0,0,0,0c-0.3,0-0.7,0.1-1,0.1h0
					c-0.3,0-0.7,0.1-1,0.1c0,0,0,0-0.1,0c-0.3,0-0.6,0.1-0.9,0.1c0,0,0,0-0.1,0c-0.3,0.1-0.6,0.1-0.9,0.2c0,0,0,0,0,0
					c-2.4,0.5-4.2,1.2-4.9,2.2c0,0-0.1,0.1-0.1,0.2c0,0,0,0,0,0c0,0.1,0,0.1,0,0.2c0,0,0,0,0,0c0,0,0,0.1,0,0.1c0,0.1,0,0.1,0,0.2
					c0,7.7,0,20.6,0,34.4c-19,0-34.4,0-34.4,0h0c-5,0-5,27.1,0,27.1c7.8,0,20.6,0,34.4,0c0,19,0,34.4,0,34.4l0,0c0,0.1,0,0.2,0,0.2
					c0.4,2.3,7,3.5,13.5,3.5c6.6,0,13.1-1.2,13.5-3.5c0-0.1,0-0.2,0-0.2c0-7.7,0-20.6,0-34.4c19,0,34.4,0,34.4,0l0,0
					c5,0,5-27.1,0-27.1c-7.8,0-20.6,0-34.4,0c0-19,0-34.4,0-34.4h0v0C291.2,351,284.4,349.8,277.7,349.8L277.7,349.8z"/>
			</g>
			<path class="st15" d="M264.1,387.9l-3.6-3.6h-30.8c-0.9,0-1.8,0.2-2.8,0.8l2.8,2.8C229.7,387.9,245.1,387.9,264.1,387.9z"/>
			<path class="st15" d="M229.7,387.9L229.7,387.9l-2.8-2.8c-1.4,0.9-2.7,2.7-3.5,6.1c-0.7,2.7-1,6.4-1,10.2c0,3.8,0.4,7.4,1,10.2
				c0.8,3.4,2.2,5.2,3.5,6.1l2.8-2.8C224.7,415.1,224.7,387.9,229.7,387.9z"/>
			<path class="st15" d="M269.2,350.5C269.2,350.5,269.2,350.5,269.2,350.5c0.3-0.1,0.6-0.1,0.9-0.2c0,0,0,0,0.1,0
				c0.3-0.1,0.6-0.1,0.9-0.1c0,0,0,0,0.1,0c0.3,0,0.7-0.1,1-0.1h0c0.3,0,0.7-0.1,1-0.1c0,0,0,0,0,0c0.3,0,0.7-0.1,1-0.1
				c0,0,0.1,0,0.1,0c0.3,0,0.6,0,1,0c0.1,0,0.1,0,0.2,0c0.3,0,0.7,0,1,0c0,0,0.1,0,0.1,0c0.4,0,0.7,0,1.1,0c6.8,0,13.6,1.2,13.6,3.7
				l2.8-2.8c-0.9-1.4-2.7-2.7-6.1-3.5c-2.7-0.7-6.4-1-10.2-1c-3.8,0-7.5,0.4-10.2,1c-2.9,0.7-4.7,1.8-5.7,3l2.6,2.6
				C264.9,351.7,266.8,351,269.2,350.5z"/>
			<path class="st15" d="M325.6,387.9l2.8-2.8c-0.9-0.6-1.9-0.8-2.8-0.8h-30.8l-3.6,3.6C305,387.9,317.9,387.9,325.6,387.9z"/>
			<path class="st15" d="M291.2,353.5L291.2,353.5c0,0,0,15.4,0,34.4l3.6-3.6l0,0v-30.8c0-0.9-0.2-1.8-0.8-2.8L291.2,353.5
				L291.2,353.5z"/>
			<path class="st15" d="M264.1,353.5c0-0.1,0-0.1,0-0.2c0,0,0-0.1,0-0.1c0,0,0,0,0,0c0-0.1,0-0.1,0-0.2c0,0,0,0,0,0
				c0-0.1,0.1-0.1,0.1-0.2l-2.6-2.6c-1,1.1-1.3,2.3-1.3,3.3v30.8l3.6,3.6C264.1,374.1,264.1,361.3,264.1,353.5z"/>
			<path class="st15" d="M325.6,415.1L325.6,415.1c0,0-15.5,0-34.4,0l3.6,3.6h30.8h1.5l0.3-0.3c0.3-0.1,0.6-0.3,0.9-0.5L325.6,415.1
				L325.6,415.1z"/>
			<path class="st15" d="M291.2,449.5l2.8,2.8c0.6-0.9,0.8-1.9,0.8-2.8v-30.8l-3.6-3.6C291.2,428.9,291.2,441.7,291.2,449.5z"/>
			<path class="st15" d="M332,391.3c-0.8-3.4-2.2-5.2-3.6-6.1l-2.8,2.8c5,0,5,27.1,0,27.1l2.8,2.8c1.4-0.9,2.7-2.7,3.5-6.1
				c0.7-2.7,1-6.4,1-10.2C333,397.7,332.6,394,332,391.3z"/>
			<path class="st15" d="M291.2,449.7c-0.4,2.3-7,3.5-13.5,3.5s-13.1-1.2-13.5-3.5c0-0.1,0-0.2,0-0.2l-2.8,2.8
				c0.9,1.4,2.7,2.7,6.2,3.5c2.7,0.7,6.3,1,10.2,1c3.8,0,7.4-0.4,10.2-1c3.4-0.8,5.2-2.2,6.1-3.5l-2.8-2.8
				C291.2,449.5,291.2,449.6,291.2,449.7z"/>
			<path class="st15" d="M264.1,449.5L264.1,449.5c0,0,0-15.4,0-34.4l-3.6,3.6v30.8v0.8l0.1,0.2c0.1,0.5,0.3,1.1,0.7,1.7
				L264.1,449.5L264.1,449.5z"/>
			<path class="st15" d="M229.7,415.1l-2.8,2.8c1,0.6,1.9,0.8,2.8,0.8h30.8l3.6-3.6C250.3,415.1,237.4,415.1,229.7,415.1z"/>
		</g>
		<g class="st7">
			<path class="st16" d="M264.1,387.9l-3.6-3.6L264.1,387.9z"/>
			<polygon class="st16" points="291.2,387.9 294.8,384.3 294.8,384.3 294.8,384.3 			"/>
			<g id="Up_00000129895570168660632630000005052078529961383094_" class="st8">
				<g>
					<path class="st15" d="M264.6,387.7v-34.2c0,0,0-0.1,0-0.1l0.1-0.2c0,0,0.1-0.1,0.1-0.1c0.5-0.8,2.1-1.5,4.5-2
						c0.3-0.1,0.6-0.1,0.9-0.2c0.4-0.1,0.7-0.1,1-0.1c0,0,0.1,0,0.2,0c0.3,0,0.6-0.1,0.9-0.1c0.3,0,0.7-0.1,1-0.1
						c0.4,0,0.7-0.1,1-0.1l2.4-0.1c0.4,0,0.7,0,1,0c7.3,0,13.1,1.4,13.1,3.2c0,0.2,0,15.9,0,34.2l-13.1,13.1L264.6,387.7z"/>
					<path class="st15" d="M277.7,350.8c8.1,0,12.6,1.6,12.6,2.7c0,0,0,0,0,0v34l-12.6,12.6l-12.6-12.6v-34c0,0,0,0,0,0l0,0
						c0,0,0,0,0,0l0,0c0,0,0-0.1,0-0.1c0,0,0,0,0-0.1c0.2-0.2,0.9-1.1,4.2-1.8c0,0,0,0,0.1,0c0.3-0.1,0.6-0.1,0.8-0.2l0.1,0
						c0.3-0.1,0.6-0.1,0.8-0.1c0,0,0.1,0,0.2,0c0.3,0,0.6-0.1,0.9-0.1c0,0,0,0,0,0c0.3,0,0.7-0.1,1-0.1l0,0c0,0,0,0,0,0
						c0.3,0,0.6-0.1,1-0.1l0.1,0c0.2,0,0.4,0,0.6,0l0.4,0c0.1,0,0.1,0,0.2,0c0.3,0,0.7,0,1,0l0.1,0
						C277,350.8,277.3,350.8,277.7,350.8 M277.7,349.8c-0.4,0-0.7,0-1.1,0c0,0-0.1,0-0.1,0c-0.3,0-0.7,0-1,0c-0.1,0-0.1,0-0.2,0
						c-0.3,0-0.7,0-1,0c0,0-0.1,0-0.1,0c-0.3,0-0.7,0-1,0.1c0,0,0,0,0,0c-0.3,0-0.7,0.1-1,0.1h0c-0.3,0-0.7,0.1-1,0.1c0,0,0,0-0.1,0
						c-0.3,0-0.6,0.1-0.9,0.1c0,0,0,0-0.1,0c-0.3,0.1-0.6,0.1-0.9,0.2c0,0,0,0,0,0c-2.4,0.5-4.2,1.2-4.9,2.2c0,0-0.1,0.1-0.1,0.2
						c0,0,0,0,0,0c0,0.1,0,0.1,0,0.2c0,0,0,0,0,0c0,0,0,0.1,0,0.1c0,0.1,0,0.1,0,0.2c0,7.7,0,20.6,0,34.4l13.6,13.6l13.6-13.6
						c0-19,0-34.4,0-34.4h0v0C291.2,351,284.4,349.8,277.7,349.8L277.7,349.8z"/>
				</g>
				<path class="st15" d="M269.2,350.5C269.2,350.5,269.2,350.5,269.2,350.5c0.3-0.1,0.6-0.1,0.9-0.2c0,0,0,0,0.1,0
					c0.3-0.1,0.6-0.1,0.9-0.1c0,0,0,0,0.1,0c0.3,0,0.7-0.1,1-0.1h0c0.3,0,0.7-0.1,1-0.1c0,0,0,0,0,0c0.3,0,0.7-0.1,1-0.1
					c0,0,0.1,0,0.1,0c0.3,0,0.6,0,1,0c0.1,0,0.1,0,0.2,0c0.3,0,0.7,0,1,0c0,0,0.1,0,0.1,0c0.4,0,0.7,0,1.1,0
					c6.8,0,13.6,1.2,13.6,3.7l2.8-2.8c-0.9-1.4-2.7-2.7-6.1-3.5c-2.7-0.7-6.4-1-10.2-1c-3.8,0-7.5,0.4-10.2,1
					c-2.9,0.7-4.7,1.8-5.7,3l2.6,2.6C264.9,351.7,266.8,351,269.2,350.5z"/>
				<path class="st15" d="M291.2,353.5L291.2,353.5c0,0,0,15.4,0,34.4l3.6-3.6v-30.8c0-0.9-0.2-1.8-0.8-2.8L291.2,353.5L291.2,353.5
					z"/>
				<path class="st15" d="M264.1,353.5c0-0.1,0-0.1,0-0.2c0,0,0-0.1,0-0.1c0,0,0,0,0,0c0-0.1,0-0.1,0-0.2c0,0,0,0,0,0
					c0-0.1,0.1-0.1,0.1-0.2l-2.6-2.6c-1,1.1-1.3,2.3-1.3,3.3v30.8l3.6,3.6C264.1,374.1,264.1,361.3,264.1,353.5z"/>
			</g>
			<polygon class="st16" points="294.9,418.7 291.3,415.1 291.3,415.1 			"/>
			<g id="Right_00000152259553784907269160000014963315235383194034_" class="st8">
				<g>
					<path class="st15" d="M291.4,414.6l-13.1-13.1l13.1-13.1h34.2c1.8,0,3.2,5.7,3.2,13.1s-1.4,13.1-3.2,13.1H291.4z"/>
					<path class="st15" d="M325.6,388.9c1.1,0,2.7,4.8,2.7,12.6c0,7.8-1.6,12.6-2.7,12.6h-34l-12.6-12.6l12.6-12.6H325.6
						 M325.6,387.9c-7.8,0-20.6,0-34.4,0l-13.6,13.6l13.6,13.6c19,0,34.4,0,34.4,0l0,0C330.6,415.1,330.6,387.9,325.6,387.9
						L325.6,387.9z"/>
				</g>
				<path class="st15" d="M325.6,387.9l2.8-2.8c-0.9-0.6-1.9-0.8-2.8-0.8h-30.8l-3.6,3.6C305,387.9,317.9,387.9,325.6,387.9z"/>
				<path class="st15" d="M325.6,415.1L325.6,415.1c0,0-15.5,0-34.4,0l3.6,3.6h30.8h1.5l0.3-0.3c0.3-0.1,0.6-0.3,0.9-0.5
					L325.6,415.1L325.6,415.1z"/>
				<path class="st15" d="M328.4,385.2l-2.8,2.8c5,0,5,27.1,0,27.1l2.8,2.8c1.4-0.9,2.7-2.7,3.5-6.1c0.7-2.7,1-6.4,1-10.2
					c0-3.8-0.4-7.4-1-10.2C331.1,387.9,329.8,386.1,328.4,385.2z"/>
			</g>
			<g id="Down_00000179617414847659223900000014954990557675319200_" class="st8">
				<g>
					<path class="st15" d="M277.7,452.7c-7.1,0-12.7-1.3-13-3.1c0,0,0-0.1,0-0.1c0-0.1,0-15.4,0-34.2l13.1-13.1l13.1,13.1v34.2
						c0,0,0,0.1,0,0.2C290.4,451.4,284.8,452.7,277.7,452.7z"/>
					<path class="st15" d="M277.7,402.9l12.6,12.6v34c0,0,0,0,0,0.1c-0.2,1.1-4.7,2.7-12.6,2.7c-7.9,0-12.4-1.5-12.6-2.7
						c0,0,0-0.1,0-0.1v-34L277.7,402.9 M277.7,401.5l-13.6,13.6c0,19,0,34.4,0,34.4l0,0c0,0.1,0,0.2,0,0.2c0.4,2.3,7,3.5,13.5,3.5
						c6.6,0,13.1-1.2,13.5-3.5c0-0.1,0-0.2,0-0.2c0-7.7,0-20.6,0-34.4L277.7,401.5L277.7,401.5z"/>
				</g>
				<path class="st15" d="M291.2,449.5l2.8,2.8c0.6-0.9,0.8-1.9,0.8-2.8v-30.8l-3.6-3.6C291.2,428.9,291.2,441.7,291.2,449.5z"/>
				<path class="st15" d="M291.2,449.7c-0.4,2.3-7,3.5-13.5,3.5s-13.1-1.2-13.5-3.5c0-0.1,0-0.2,0-0.2l-2.8,2.8
					c0.9,1.4,2.7,2.7,6.2,3.5c2.7,0.7,6.3,1,10.2,1c3.8,0,7.4-0.4,10.2-1c3.4-0.8,5.2-2.2,6.1-3.5l-2.8-2.8
					C291.2,449.5,291.2,449.6,291.2,449.7z"/>
				<path class="st15" d="M264.1,449.5L264.1,449.5c0,0,0-15.4,0-34.4l-3.6,3.6v30.8v0.8l0.1,0.2c0.1,0.5,0.3,1.1,0.7,1.7
					L264.1,449.5L264.1,449.5z"/>
			</g>
			<g id="left_00000055694352751548343920000015177450907469381039_" class="st8">
				<g>
					<path class="st15" d="M229.7,414.6c-1.8,0-3.2-5.7-3.2-13.1s1.4-13.1,3.2-13.1h34.2l13.1,13.1l-13.1,13.1H229.7z"/>
					<path class="st15" d="M263.7,388.9l12.6,12.6l-12.6,12.6h-34c-1.1,0-2.7-4.8-2.7-12.6s1.6-12.6,2.7-12.6L263.7,388.9
						 M264.1,387.9c-19,0-34.4,0-34.4,0h0c-5,0-5,27.1,0,27.1c7.8,0,20.6,0,34.4,0l13.6-13.6L264.1,387.9L264.1,387.9z"/>
				</g>
				<path class="st15" d="M264.1,387.9l-3.6-3.6h-30.8c-0.9,0-1.8,0.2-2.8,0.8l2.8,2.8C229.7,387.9,245.1,387.9,264.1,387.9z"/>
				<path class="st15" d="M229.7,387.9L229.7,387.9l-2.8-2.8c-1.4,0.9-2.7,2.7-3.5,6.1c-0.7,2.7-1,6.4-1,10.2c0,3.8,0.4,7.4,1,10.2
					c0.8,3.4,2.2,5.2,3.5,6.1l2.8-2.8C224.7,415.1,224.7,387.9,229.7,387.9z"/>
				<path class="st15" d="M229.7,415.1l-2.8,2.8c1,0.6,1.9,0.8,2.8,0.8h30.8l3.6-3.6C250.3,415.1,237.4,415.1,229.7,415.1z"/>
			</g>
		</g>
	</g>
	<g class="st14">
		<g id="Menu_Key_00000130610568920201614800000001371334464439984814_">
			<g>
				<path class="st17" d="M448.8,280.3c0,10.4-8.4,18.8-18.8,18.8c-10.4,0-18.8-8.4-18.8-18.8c0-10.4,8.4-18.8,18.8-18.8
					C440.4,261.5,448.8,269.9,448.8,280.3z"/>
			</g>
			<g>
				<path class="st17" d="M446.1,280.3c0,8.9-7.2,16.1-16.1,16.1c-8.9,0-16.1-7.2-16.1-16.1c0-8.9,7.2-16.1,16.1-16.1
					C438.9,264.2,446.1,271.4,446.1,280.3z"/>
				<g>
					<rect x="422.8" y="275.6" class="st17" width="14.4" height="1.6"/>
					<rect x="422.8" y="279.6" class="st17" width="14.4" height="1.6"/>
					<rect x="422.8" y="283.4" class="st17" width="14.4" height="1.5"/>
				</g>
			</g>
			<g id="Menu_Pressed_00000174602030743429063490000011233711612015863975_" class="st7">
				<path class="st18" d="M446.1,280.3c0,8.9-7.2,16.1-16.1,16.1c-8.9,0-16.1-7.2-16.1-16.1c0-8.9,7.2-16.1,16.1-16.1
					C438.9,264.2,446.1,271.4,446.1,280.3z"/>
				<g class="st8">
					<rect x="422.8" y="275.6" class="st17" width="14.4" height="1.6"/>
					<rect x="422.8" y="279.6" class="st17" width="14.4" height="1.6"/>
					<rect x="422.8" y="283.4" class="st17" width="14.4" height="1.5"/>
				</g>
			</g>
		</g>
		<g id="Switcher_Key_00000062888876203256709430000014579343255511859646_">
			<g>
				<path class="st17" d="M340.8,280.3c0,10.4-8.4,18.8-18.8,18.8c-10.4,0-18.8-8.4-18.8-18.8c0-10.4,8.4-18.8,18.8-18.8
					C332.4,261.5,340.8,269.9,340.8,280.3z"/>
			</g>
			<g>
				<path class="st17" d="M338.1,280.3c0,8.9-7.2,16.1-16.1,16.1c-8.9,0-16.1-7.2-16.1-16.1c0-8.9,7.2-16.1,16.1-16.1
					C330.9,264.2,338.1,271.4,338.1,280.3z"/>
				<g>
					<polygon class="st17" points="319.5,280.2 316.4,280.2 316.4,276.4 321.9,276.4 321.9,277.7 323.7,277.7 323.7,274.6 
						314.8,274.6 314.8,282 319.5,282 					"/>
					<path class="st17" d="M320.2,278.3v7.6h9v-7.6H320.2z M327.4,284.1h-5.5v-3.9h5.5V284.1z"/>
				</g>
			</g>
		</g>
	</g>
	<g>
		<g id="A_00000009558612021006063020000007677411224148479658_" class="st14">
			<path class="st19" d="M566.6,355.3c-13.9,0-25.2-11.3-25.2-25.2c0-13.9,11.3-25.2,25.2-25.2c13.9,0,25.2,11.3,25.2,25.2
				C591.8,344,580.5,355.3,566.6,355.3z"/>
			<path class="st19" d="M566.6,306.4c13.1,0,23.7,10.6,23.7,23.7c0,13.1-10.6,23.7-23.7,23.7c-13.1,0-23.7-10.6-23.7-23.7
				C542.9,317,553.5,306.4,566.6,306.4 M566.6,303.4c-14.7,0-26.7,12-26.7,26.7c0,14.7,12,26.7,26.7,26.7c14.7,0,26.7-12,26.7-26.7
				C593.3,315.4,581.3,303.4,566.6,303.4L566.6,303.4z"/>
		</g>
		<g id="Y_00000119822425262899845440000003804015543458397070_" class="st14">
			<path class="st19" d="M566.6,254.2c-13.9,0-25.2-11.3-25.2-25.2c0-13.9,11.3-25.2,25.2-25.2c13.9,0,25.2,11.3,25.2,25.2
				C591.8,242.9,580.5,254.2,566.6,254.2z"/>
			<path class="st19" d="M566.6,205.3c13.1,0,23.7,10.6,23.7,23.7c0,13.1-10.6,23.7-23.7,23.7c-13.1,0-23.7-10.6-23.7-23.7
				C542.9,215.9,553.5,205.3,566.6,205.3 M566.6,202.3c-14.7,0-26.7,12-26.7,26.7c0,14.7,12,26.7,26.7,26.7
				c14.7,0,26.7-12,26.7-26.7C593.3,214.3,581.3,202.3,566.6,202.3L566.6,202.3z"/>
		</g>
		<g id="B_00000070077992914801456030000014729030983038043060_" class="st14">
			<path class="st19" d="M617.2,304.7c-13.9,0-25.2-11.3-25.2-25.2c0-13.9,11.3-25.2,25.2-25.2c13.9,0,25.2,11.3,25.2,25.2
				C642.4,293.4,631.1,304.7,617.2,304.7z"/>
			<path class="st19" d="M617.2,255.8c13.1,0,23.7,10.6,23.7,23.7c0,13.1-10.6,23.7-23.7,23.7c-13.1,0-23.7-10.6-23.7-23.7
				C593.5,266.4,604.1,255.8,617.2,255.8 M617.2,252.8c-14.7,0-26.7,12-26.7,26.7c0,14.7,12,26.7,26.7,26.7
				c14.7,0,26.7-12,26.7-26.7C643.9,264.8,631.9,252.8,617.2,252.8L617.2,252.8z"/>
		</g>
		<g id="X_00000012472587388563377230000011010077848873254031_" class="st14">
			<path class="st19" d="M516.1,304.7c-13.9,0-25.2-11.3-25.2-25.2c0-13.9,11.3-25.2,25.2-25.2c13.9,0,25.2,11.3,25.2,25.2
				C541.3,293.4,530,304.7,516.1,304.7z"/>
			<path class="st19" d="M516.1,255.8c13.1,0,23.7,10.6,23.7,23.7c0,13.1-10.6,23.7-23.7,23.7c-13.1,0-23.7-10.6-23.7-23.7
				C492.4,266.4,503,255.8,516.1,255.8 M516.1,252.8c-14.7,0-26.7,12-26.7,26.7c0,14.7,12,26.7,26.7,26.7c14.7,0,26.7-12,26.7-26.7
				C542.8,264.8,530.8,252.8,516.1,252.8L516.1,252.8z"/>
		</g>
	</g>
	<g id="Left_Stick_00000066479025293611366780000006948494028085220016_" class="st14">
		<g>
			<path class="st19" d="M185.6,351.6c-37.3,0-67.7-30.4-67.7-67.7s30.4-67.7,67.7-67.7c37.3,0,67.7,30.4,67.7,67.7
				S222.9,351.6,185.6,351.6z"/>
		</g>
		<path class="st19" d="M241.7,279.9c0,31-25.1,56.1-56.1,56.1c-31,0-56.1-25.1-56.1-56.1c0-31,25.1-56.1,56.1-56.1
			C216.6,223.8,241.7,248.9,241.7,279.9z"/>
	</g>
	<g id="Right_Stick_00000160176815910544689040000011776204642519158429_" class="st14">
		<g>
			<path class="st19" d="M473.2,465.5c-37.3,0-67.7-30.4-67.7-67.7c0-37.3,30.4-67.7,67.7-67.7c37.3,0,67.7,30.4,67.7,67.7
				C540.9,435.2,510.5,465.5,473.2,465.5z"/>
		</g>
		<path class="st19" d="M529.3,393.9c0,31-25.1,56.1-56.1,56.1c-31,0-56.1-25.1-56.1-56.1c0-31,25.1-56.1,56.1-56.1
			C504.2,337.8,529.3,362.9,529.3,393.9z"/>
	</g>
	<g>
		<g>
			<g>
				<path class="st2" d="M473.7,162l13.2,24.5c-3.3,3.9-6.7,7.9-9.9,11.8c-7.9,9.5-16.1,19.4-23.5,26.5
					c-9.2,8.9-14.3,10.7-17.1,10.7H376h-60.5c-2.7,0-7.9-1.9-17.1-10.8c-7.4-7.1-15.6-17-23.5-26.5c-3.2-3.9-6.5-7.9-9.8-11.7
					l13.2-24.5c20.1,1.7,94.3,2.6,97.7,2.6l0.1,0l0.1,0C379.4,164.6,453.6,163.7,473.7,162 M476.5,156.6c-11.6,1.9-100.6,3-100.6,3
					s-88.9-1.1-100.5-3L259,187.2c20.2,23.3,41.6,53.3,56.4,53.3c15.1,0,60.5,0,60.5,0s45.4,0,60.5,0c14.9,0,36.2-30,56.5-53.3
					L476.5,156.6L476.5,156.6z"/>
			</g>
			<g>
				<path class="st2" d="M472.9,149.9c-1.9,0.5-3.7,0.7-5.4,0.7c-21.9,0-92.2,0-92.2,0s-70.3,0-92.2,0c-1.4,0-2.8-0.2-4.3-0.5
					l-3.5,6.5c11.6,1.9,100.5,3,100.5,3s88.9-1.1,100.6-3L472.9,149.9L472.9,149.9z"/>
			</g>
		</g>
		<g id="RB_00000045581493010984767540000006938893702375440768_">
			<g>
				<path class="st2" d="M518.7,141.8L518.7,141.8c28.5,0,98.8,29.6,109.9,34.3c1,1.9,1.5,4,2.1,6.4c0.1,0.4,0.2,0.8,0.3,1.2
					c-31.3-14.2-76.8-28.4-99.6-28.4c-2.6,0-4.9,0.2-6.9,0.6c-8,1.5-16.8,7.9-29.1,21.1l-10.3-19.2c0.8-0.5,1.6-1.1,2.5-1.7
					c6.3-4.3,14.8-10.2,25.2-13.5C514.3,142,516.3,141.8,518.7,141.8 M518.7,136.8c-2.9,0-5.4,0.3-7.4,0.9
					c-15.6,4.9-27.2,15.3-32.8,18.2l15.9,29.6c11.2-12.7,21.9-23,31.1-24.8c1.7-0.3,3.7-0.5,5.9-0.5c24.6,0,80.8,18.3,111.5,34.8
					c0,0,0,0,0,0c-8.6-7.6-5.9-15.5-10.8-22.9C631.3,171.8,550.7,136.8,518.7,136.8L518.7,136.8z M631.4,171.2
					c0.1,0.1,0.2,0.3,0.3,0.4C631.6,171.5,631.5,171.4,631.4,171.2L631.4,171.2z M631.7,171.7c0.1,0.2,0.3,0.4,0.4,0.5c0,0,0,0,0,0
					C632,172,631.9,171.8,631.7,171.7L631.7,171.7z M642.9,195.1C642.9,195.1,642.9,195.1,642.9,195.1
					C642.9,195.1,642.9,195.1,642.9,195.1L642.9,195.1z"/>
			</g>
			<g>
				<path class="st2" d="M520.7,132.2c-4.1,0-8.1,0.2-12,0.8c-7.6,1-21.6,12.3-33.8,16.3l3.6,6.7c5.6-2.9,17.3-13.4,32.8-18.2
					c2-0.6,4.5-0.9,7.4-0.9c32.2,0,113.4,35.4,113.4,35.4c-0.2-0.3-0.5-0.7-0.7-1c0,0-0.1-0.1-0.1-0.1c-0.1-0.1-0.2-0.2-0.3-0.4
					c0-0.1-0.1-0.1-0.1-0.2c-0.1-0.1-0.2-0.2-0.3-0.3c-0.1-0.1-0.1-0.1-0.2-0.2c-0.1-0.1-0.2-0.2-0.3-0.3c-0.1-0.1-0.1-0.1-0.2-0.2
					c-0.1-0.1-0.2-0.2-0.3-0.3c-0.1-0.1-0.1-0.1-0.2-0.2c-0.1-0.1-0.2-0.2-0.3-0.3c-0.1-0.1-0.2-0.1-0.2-0.2
					c-0.1-0.1-0.2-0.2-0.3-0.3c-0.1-0.1-0.1-0.1-0.2-0.2c-0.1-0.1-0.2-0.2-0.3-0.3c-0.1-0.1-0.2-0.1-0.3-0.2
					c-0.1-0.1-0.2-0.2-0.3-0.3c-0.1-0.1-0.2-0.1-0.3-0.2c-0.1-0.1-0.2-0.2-0.4-0.3c-0.1,0-0.2-0.1-0.3-0.2c-0.1-0.1-0.3-0.2-0.4-0.3
					c-0.1-0.1-0.2-0.1-0.3-0.2c-0.1-0.1-0.3-0.2-0.4-0.3c-0.1-0.1-0.2-0.1-0.3-0.2c-0.2-0.1-0.3-0.2-0.5-0.3
					c-0.1-0.1-0.2-0.1-0.3-0.2c-0.2-0.1-0.4-0.2-0.5-0.3c-0.1-0.1-0.2-0.1-0.3-0.2c-0.3-0.2-0.6-0.3-0.8-0.5
					C606.4,155.4,560.6,132.2,520.7,132.2L520.7,132.2z"/>
			</g>
		</g>
		<g id="LB_00000078018344481323804100000003953971486695895694_">
			<g>
				<path class="st2" d="M230,132.2c-39.9,0-85.7,23.1-102.2,32.1c-0.3,0.2-0.6,0.3-0.8,0.5c-0.1,0.1-0.2,0.1-0.2,0.2
					c-0.2,0.1-0.4,0.2-0.5,0.3c-0.1,0.1-0.2,0.1-0.3,0.2c-0.1,0.1-0.3,0.2-0.5,0.3c-0.1,0-0.2,0.1-0.3,0.2c-0.1,0.1-0.3,0.2-0.4,0.3
					c-0.1,0.1-0.2,0.1-0.3,0.2c-0.1,0.1-0.3,0.2-0.4,0.3c-0.1,0.1-0.2,0.1-0.3,0.2c-0.1,0.1-0.3,0.2-0.4,0.3
					c-0.1,0.1-0.2,0.1-0.2,0.2c-0.1,0.1-0.2,0.2-0.4,0.3c-0.1,0.1-0.1,0.1-0.2,0.2c-0.1,0.1-0.2,0.2-0.3,0.3
					c-0.1,0.1-0.1,0.1-0.2,0.2c-0.1,0.1-0.2,0.2-0.3,0.3c-0.1,0.1-0.1,0.1-0.2,0.2c-0.1,0.1-0.2,0.2-0.3,0.3c-0.1,0-0.1,0.1-0.2,0.2
					c-0.1,0.1-0.2,0.2-0.3,0.3c0,0.1-0.1,0.1-0.1,0.2c-0.1,0.1-0.2,0.2-0.3,0.3c0,0-0.1,0.1-0.1,0.1c-0.1,0.1-0.2,0.3-0.3,0.4
					c0,0-0.1,0.1-0.1,0.1c-0.1,0.1-0.2,0.3-0.3,0.4c0,0,0,0.1-0.1,0.1c-0.1,0.1-0.2,0.3-0.3,0.4c0,0,0,0,0,0
					c-0.1,0.2-0.2,0.3-0.3,0.5c0,0,82.2-35.3,114.5-35.3c2.9,0,5.4,0.3,7.5,0.9c15.5,4.9,27.2,15.3,32.8,18.2l3.4-6.3
					c-12.4-3.6-27-15.6-34.9-16.6C238.1,132.5,234.1,132.2,230,132.2L230,132.2z"/>
			</g>
			<g>
				<g>
					<path class="st2" d="M273.9,156.2c0.2,0.1,0.3,0.1,0.5,0.2C274.2,156.3,274.1,156.3,273.9,156.2L273.9,156.2z"/>
				</g>
				<g>
					<path class="st2" d="M233.2,136.8l0,5c2.5,0,4.5,0.2,6,0.7c10.3,3.2,18.9,9.2,25.1,13.5c0.9,0.6,1.7,1.2,2.5,1.7l-10.3,19.2
						c-12.2-13.1-21.1-19.5-29.1-21.1c-1.9-0.4-4.1-0.6-6.7-0.6c-22.9,0-69.6,14.3-101,28.4c0.1-0.4,0.2-0.8,0.3-1.2
						c0.6-2.4,1.1-4.5,2.1-6.4c11.4-4.8,82.5-34.3,111.1-34.3V136.8 M233.2,136.8c-32.2,0-113.9,35-114.5,35.3
						c-5,7.4-2.2,15.3-10.8,23c0,0,0,0,0,0c30.4-16.4,88.5-34.8,113-34.8c2.2,0,4.1,0.1,5.7,0.5c9.1,1.8,19.9,12.1,31.1,24.8
						l15.9-29.6c-5.6-2.9-17.3-13.4-32.8-18.2C238.6,137.1,236.1,136.8,233.2,136.8L233.2,136.8z M273.4,155.9L273.4,155.9
						C273.4,155.9,273.4,156,273.4,155.9C273.4,156,273.4,155.9,273.4,155.9L273.4,155.9z M273.4,156C273.4,156,273.4,156,273.4,156
						C273.4,156,273.4,156,273.4,156L273.4,156z M107.8,195.1C107.8,195.1,107.8,195.1,107.8,195.1
						C107.8,195.1,107.8,195.1,107.8,195.1L107.8,195.1z M107.8,195.1C107.8,195.1,107.8,195.1,107.8,195.1
						C107.8,195.1,107.8,195.1,107.8,195.1L107.8,195.1z"/>
				</g>
				<g>
					<path class="st2" d="M273.4,156c0.2,0.1,0.3,0.2,0.5,0.2C273.8,156.1,273.6,156,273.4,156L273.4,156z"/>
				</g>
			</g>
			<path class="st19" d="M258.3,186.3c0.2,0.3,0.5,0.6,0.7,0.8l16.4-30.5l3.5-6.5c-0.3-0.1-0.7-0.1-1-0.2c-0.3-0.1-0.7-0.2-1-0.3
				l-3.4,6.3l-15.9,29.6C257.8,185.8,258,186.1,258.3,186.3L258.3,186.3"/>
		</g>
		<g>
			<path class="st2" d="M474.9,149.3c-0.3,0.1-0.7,0.2-1,0.3c-0.3,0.1-0.7,0.2-1,0.3l3.6,6.8l16.4,30.5c0.2-0.3,0.5-0.5,0.7-0.8
				c0.2-0.3,0.5-0.5,0.7-0.8l-15.9-29.6L474.9,149.3L474.9,149.3z"/>
		</g>
		<g>
			<polygon class="st2" points="357.3,172.4 357.3,172.4 357.3,172.4 			"/>
		</g>
	</g>
	<g class="st14">
		<g>
			<g>
				<path class="st2" d="M553,15.7c4.9,2,11.8,5.5,19,18.1c9.8,17.2,17,45.8,21.4,85.3l-42.5-5.8L553,15.7 M548.2,7.7l-2.3,110
					l53.3,7.2c-12.1-116.8-43-111-49.7-116.3C549,8.3,548.6,8,548.2,7.7L548.2,7.7z"/>
			</g>
			<g>
				<path class="st2" d="M529,8.1c6.9,0,11,0.7,14.5,2.5c0.5,6.8,1.6,27,1,56.8c-0.4,20.5-0.6,37-0.7,45.1
					c-7.3-0.8-20.3-2.4-28.3-3.8c2.4-48.3,0-86.2-0.2-89.2v-1c0-1.2,0.3-4.2,1.5-6.7c1.2-2.4,3-3.5,5.8-3.6
					C525.2,8.2,527.2,8.1,529,8.1 M529,3.1c-2,0-4.2,0.1-6.6,0.1c-10.8,0.4-12.1,11.4-12.2,15.2v1.2c0,0,2.9,40.7,0,93.1
					c9.9,2.3,38.5,5.3,38.5,5.3s0-20.9,0.7-50.6c0.8-37.5-1.2-59.8-1.2-59.8C543,4.1,537.4,3.1,529,3.1L529,3.1z"/>
			</g>
		</g>
		<g>
			<g>
				<path class="st2" d="M197.7,15.7l2.1,97.6l-42.5,5.8c4.5-39.5,11.7-68.1,21.4-85.3C185.9,21.2,192.8,17.6,197.7,15.7 M202.5,7.7
					c-0.4,0.3-0.8,0.6-1.2,0.9c-6.8,5.3-37.6-0.5-49.7,116.3l53.2-7.2L202.5,7.7L202.5,7.7z"/>
			</g>
			<g>
				<path class="st2" d="M221.8,3.1v5c1.8,0,3.8,0,6.4,0.1c2.8,0.1,4.6,1.2,5.8,3.6c1.2,2.4,1.5,5.4,1.5,6.7v1
					c-0.2,3-2.6,40.9-0.2,89.2c-8.1,1.4-21,3-28.3,3.8c-0.1-8.2-0.2-24.6-0.7-45.1c-0.6-29.7,0.5-50,1-56.8
					c3.4-1.8,7.6-2.5,14.5-2.5L221.8,3.1 M221.8,3.1c-8.4,0-14.1,1-19.2,4.6c0,0-2,22.3-1.2,59.8c0.6,29.7,0.7,50.6,0.7,50.6
					s28.6-3,38.5-5.3c-2.9-52.4,0-93.1,0-93.1v-1.2c-0.1-3.8-1.4-14.8-12.2-15.2C226,3.2,223.8,3.1,221.8,3.1L221.8,3.1z"/>
			</g>
		</g>
	</g>
	<g>
		<g>
			<path class="st2" d="M108.4,192c-0.4,0.2-0.8,0.4-1.2,0.6C107.8,192.4,108.2,192.2,108.4,192L108.4,192z"/>
		</g>
		<g>
			<path class="st2" d="M643.5,192c0.2,0.2,0.8,0.4,1.5,0.8C644.6,192.5,644,192.2,643.5,192L643.5,192z"/>
		</g>
		<g>
			<path class="st2" d="M532,162.2c22.5,0,77.3,17.2,108.9,34c0.5,0.3,1,0.6,1.7,0.9l0.3,0.1l0,0c1.6,0.8,3.9,1.9,6.6,3.9
				c5,3.7,8.8,8.6,11.2,14.6c30.3,75.4,52.8,140.3,66.8,193c13.1,49.4,19.3,89.8,18.4,120.1c-0.6,20.6-4.8,38.5-12.5,53.2
				c-6,11.6-14.3,21.3-24.4,28.7c-15.4,11.2-30.8,14-34.3,14.5c-14-3.9-35.5-26.5-58.3-50.4c-35.2-36.9-75.1-78.6-110.5-78.6H376
				H246.2c-35.4,0-75.3,41.8-110.5,78.6c-22.8,23.9-44.4,46.5-58.3,50.4c-3.6-0.5-19-3.3-34.4-14.5c-10.2-7.4-18.4-17.1-24.4-28.7
				C10.9,567.5,6.7,549.6,6.1,529c-0.9-30.4,5.3-70.8,18.4-120.1c14-52.7,36.5-117.7,66.8-193c2.3-5.7,5.8-10.4,10.4-14
				c3.1-2.5,6-3.8,7.7-4.6l0.1-0.1l0.1,0l0.1,0l0.3-0.1c0.4-0.2,0.8-0.4,1.1-0.6c30.9-16.6,87.5-34.1,110.4-34.1
				c1.9,0,3.5,0.1,4.8,0.4c11,2.1,27.3,21.7,41.7,39c18.2,21.9,34,40.8,48.2,40.8h60.5h60.5c14.3,0,30-18.9,48.2-40.8
				c14.4-17.3,30.7-36.9,41.7-39C528.3,162.3,530,162.2,532,162.2 M532,157.2c-2.3,0-4.2,0.2-5.9,0.5c-26,5-65.5,79.7-89,79.7
				c-15.1,0-60.5,0-60.5,0s-45.4,0-60.5,0c-23.4,0-63-74.7-89-79.7c-1.6-0.3-3.5-0.5-5.7-0.5c-24.5,0-82.6,18.4-113,34.8
				c-0.2,0.2-0.6,0.4-1.2,0.6c-1.8,0.8-5.1,2.4-8.7,5.3c-4.2,3.3-8.8,8.4-11.9,16.1C23.9,370-0.8,469.1,1.1,529.1
				C4,623.5,77.6,630.5,77.6,630.5c37-8.6,111.5-129.1,168.5-129.1c31.2,0,129.8,0,129.8,0s98.6,0,129.8,0
				c57,0,131.5,120.5,168.5,129.1c0,0,73.7-6.9,76.6-101.3c1.9-60-22.8-159.1-85.5-315.2c-3.3-8.3-8.4-13.5-12.9-16.8
				c-3-2.2-5.7-3.6-7.4-4.4c-0.8-0.4-1.3-0.6-1.5-0.8C612.8,175.5,556.6,157.2,532,157.2L532,157.2z"/>
		</g>
	</g>
	<g>
		<path class="st2" d="M520.4,134.1c36.3,0,78.1,19.8,99.9,31.5c7.9,4.3,8.8,8.2,10.1,13.7c1.1,4.8,2.6,10.7,8.9,16.3
			c0.7,0.6,1.5,1,2.6,1.6c3.9,1.9,12.9,6.4,17.9,18.6c30.3,75.4,52.8,140.3,66.8,193c13.1,49.4,19.3,89.8,18.4,120.1
			c-0.6,20.6-4.8,38.5-12.5,53.2c-6,11.6-14.3,21.3-24.4,28.7c-15.4,11.2-30.8,14-34.3,14.5c-14-3.9-35.5-26.5-58.3-50.4
			c-35.2-36.9-75.1-78.6-110.5-78.6H375H245.2c-35.4,0-75.3,41.8-110.5,78.6c-22.8,23.9-44.4,46.5-58.3,50.4
			c-3.6-0.5-19-3.3-34.4-14.5c-10.2-7.4-18.4-17.1-24.4-28.7C9.9,567.5,5.7,549.6,5.1,529c-0.9-30.4,5.3-70.8,18.4-120.1
			c14-52.7,36.5-117.7,66.8-193c4.9-12.2,14-16.7,17.9-18.6c1.2-0.6,1.9-0.9,2.6-1.6c6.3-5.6,7.7-11.5,8.9-16.3
			c1.3-5.5,2.3-9.5,10.1-13.7c21.7-11.8,63.6-31.5,99.9-31.5c3.9,0,7.7,0.2,11.3,0.7c2.9,0.4,8.4,3.6,13.7,6.6
			c8.9,5.2,19.1,11,28.2,11H375h92.2c9.1,0,19.2-5.9,28.2-11c5.3-3.1,10.8-6.2,13.7-6.6C512.6,134.4,516.4,134.1,520.4,134.1
			 M520.4,129.1c-4.1,0-8.1,0.2-12,0.8c-9.2,1.2-27.8,17.6-41.2,17.6c-21.9,0-92.2,0-92.2,0s-70.3,0-92.2,0
			c-13.4,0-32-16.4-41.2-17.6c-3.9-0.5-7.9-0.8-12-0.8c-39.9,0-85.7,23.1-102.2,32.1c-17.5,9.5-8.2,20.4-19.9,30.7
			c-1.3,1.1-15.1,5.3-21.8,22C22.9,370-1.7,469.1,0.1,529.1C3,623.5,76.7,630.5,76.7,630.5c37-8.6,111.6-129.1,168.5-129.1
			c31.2,0,129.8,0,129.8,0s98.6,0,129.8,0c57,0,131.5,120.5,168.5,129.1c0,0,73.7-6.9,76.6-101.3c1.9-60-22.8-159.1-85.5-315.2
			c-6.7-16.7-20.5-20.9-21.8-22c-11.7-10.3-2.5-21.2-19.9-30.7C606,152.3,560.3,129.1,520.4,129.1L520.4,129.1z"/>
	</g>
	<g>
		<g>
			
				<image style="overflow:visible;opacity:0.75;enable-background:new    ;" width="102" height="102" xlink:href="D55DA039.png"  transform="matrix(1 0 0 1 324.969 149.4111)">
			</image>
			<g>
				<path class="st15" d="M408.3,200.4c0,18-14.6,32.6-32.6,32.6c-18,0-32.6-14.6-32.6-32.6c0-18,14.6-32.6,32.6-32.6
					C393.7,167.8,408.3,182.4,408.3,200.4z"/>
			</g>
		</g>
		<path class="st15" d="M384.7,186c0,0,8.9-9.4,13.8-8.9c0,0,0,0,0,0c-0.7-0.7-1.5-1.4-2.3-2c0,0,0,0,0,0c-0.4-0.3-0.8-0.6-1.2-0.9
			c0,0,0,0-0.1-0.1c-0.4-0.3-0.8-0.5-1.2-0.8c0,0,0,0,0,0c-0.4-0.1-0.8-0.1-1.2-0.2c-5.2-0.5-16.9,4.5-16.9,4.5s-11.6-5-16.9-4.5
			c-0.4,0-0.8,0.1-1.2,0.2c0,0,0,0,0,0c-0.4,0.3-0.8,0.6-1.2,0.8c0,0,0,0-0.1,0c-0.4,0.3-0.8,0.6-1.2,0.9c0,0,0,0,0,0
			c-0.8,0.6-1.5,1.3-2.3,2v0c4.8-0.6,13.8,8.9,13.8,8.9s-17.7,20.9-17,34.1c1.1,1.4,2.3,2.8,3.6,4c-0.4-12,22.3-30.1,22.3-30.1
			s22.8,18.1,22.3,30.1c1.3-1.2,2.5-2.6,3.6-4c0,0,0,0,0,0C402.5,206.9,384.7,186,384.7,186z"/>
	</g>
</g>
</svg>
